<svg width="55" height="55" viewBox="0 0 55 55" fill="none" xmlns="http://www.w3.org/2000/svg">
<g clip-path="url(#clip0)">
<path d="M47.9805 13.7084C47.9805 11.8905 47.2584 10.1471 45.9729 8.86162C44.6875 7.57617 42.944 6.854 41.1261 6.854H13.7084C12.3283 6.86218 10.9829 7.28674 9.84809 8.07215C8.7133 8.85755 7.84202 9.96721 7.34826 11.2559C6.85449 12.5447 6.76124 13.9524 7.08071 15.295C7.40018 16.6376 8.11748 17.8525 9.13876 18.7807V41.1262C9.13876 42.9441 9.86092 44.6875 11.1464 45.973C12.4318 47.2584 14.1753 47.9806 15.9932 47.9806H38.8413C40.6592 47.9806 42.4027 47.2584 43.6881 45.973C44.9736 44.6875 45.6957 42.9441 45.6957 41.1262V18.7807C46.41 18.1419 46.9823 17.3605 47.3759 16.4868C47.7694 15.6131 47.9754 14.6666 47.9805 13.7084ZM13.7084 11.4236H41.1261C41.7321 11.4236 42.3132 11.6643 42.7417 12.0928C43.1702 12.5213 43.4109 13.1025 43.4109 13.7084C43.4109 14.3144 43.1702 14.8956 42.7417 15.324C42.3132 15.7525 41.7321 15.9932 41.1261 15.9932H13.7084C13.1024 15.9932 12.5213 15.7525 12.0928 15.324C11.6643 14.8956 11.4236 14.3144 11.4236 13.7084C11.4236 13.1025 11.6643 12.5213 12.0928 12.0928C12.5213 11.6643 13.1024 11.4236 13.7084 11.4236ZM41.1261 41.1262C41.1261 41.7321 40.8854 42.3133 40.4569 42.7418C40.0284 43.1703 39.4473 43.411 38.8413 43.411H15.9932C15.3872 43.411 14.8061 43.1703 14.3776 42.7418C13.9491 42.3133 13.7084 41.7321 13.7084 41.1262V20.5629H41.1261V41.1262Z" fill="#74ABD1"/>
<path d="M32.2855 27.417H22.5522C21.4544 27.417 20.5645 28.307 20.5645 29.4048V29.9988C20.5645 31.0967 21.4544 31.9866 22.5522 31.9866H32.2855C33.3834 31.9866 34.2733 31.0967 34.2733 29.9988V29.4048C34.2733 28.307 33.3834 27.417 32.2855 27.417Z" fill="#74ABD1"/>
</g>
<defs>
<clipPath id="clip0">
<rect width="54.8355" height="54.8355" fill="white"/>
</clipPath>
</defs>
</svg>
