<svg width="65" height="65" viewBox="0 0 65 65" fill="none" xmlns="http://www.w3.org/2000/svg">
<path d="M54.1667 32.0396C53.4484 32.0396 52.7595 32.3249 52.2516 32.8328C51.7437 33.3407 51.4583 34.0296 51.4583 34.7479V49.8333C51.4583 50.2643 51.2871 50.6776 50.9824 50.9824C50.6776 51.2871 50.2643 51.4583 49.8333 51.4583H15.1667C14.7357 51.4583 14.3224 51.2871 14.0176 50.9824C13.7129 50.6776 13.5417 50.2643 13.5417 49.8333V15.1667C13.5417 14.7357 13.7129 14.3224 14.0176 14.0176C14.3224 13.7129 14.7357 13.5417 15.1667 13.5417H41.0854C41.8037 13.5417 42.4926 13.2563 43.0005 12.7484C43.5084 12.2405 43.7938 11.5516 43.7938 10.8333C43.7938 10.115 43.5084 9.42616 43.0005 8.91825C42.4926 8.41034 41.8037 8.125 41.0854 8.125H15.1667C13.3013 8.13213 11.5144 8.87631 10.1953 10.1953C8.87631 11.5144 8.13213 13.3013 8.125 15.1667V49.8333C8.13213 51.6987 8.87631 53.4856 10.1953 54.8047C11.5144 56.1237 13.3013 56.8679 15.1667 56.875H49.8333C51.6987 56.8679 53.4856 56.1237 54.8047 54.8047C56.1237 53.4856 56.8679 51.6987 56.875 49.8333V34.7479C56.875 34.0296 56.5897 33.3407 56.0817 32.8328C55.5738 32.3249 54.885 32.0396 54.1667 32.0396Z" fill="#EC8068"/>
<path d="M29.035 29.7913C28.5268 29.3343 27.8645 29.0863 27.1811 29.0971C26.4976 29.1079 25.8435 29.3768 25.35 29.8497C24.8566 30.3226 24.5601 30.9647 24.5202 31.6471C24.4804 32.3294 24.7 33.0016 25.135 33.5288L31.1475 39.8392C31.3992 40.1033 31.7017 40.3138 32.0368 40.4581C32.3719 40.6024 32.7327 40.6774 33.0975 40.6788C33.4604 40.681 33.82 40.6101 34.155 40.4705C34.49 40.331 34.7935 40.1255 35.0475 39.8663L53.41 20.908C53.6589 20.6519 53.855 20.3493 53.9871 20.0175C54.1191 19.6856 54.1844 19.331 54.1794 18.9739C54.1744 18.6167 54.099 18.2641 53.9577 17.9361C53.8164 17.6081 53.6119 17.3111 53.3558 17.0622C53.0997 16.8132 52.7971 16.6171 52.4653 16.4851C52.1334 16.3531 51.7788 16.2877 51.4217 16.2928C51.0646 16.2978 50.7119 16.3731 50.3839 16.5144C50.0559 16.6557 49.759 16.8603 49.51 17.1163L33.1246 34.0705L29.035 29.7913Z" fill="#EC8068"/>
</svg>
