<svg width="60" height="59" viewBox="0 0 60 59" fill="none" xmlns="http://www.w3.org/2000/svg">
<path d="M37.5664 38.8989H22.9249C22.2776 38.8989 21.6569 39.156 21.1992 39.6137C20.7415 40.0714 20.4844 40.6922 20.4844 41.3394C20.4844 41.9867 20.7415 42.6074 21.1992 43.0651C21.6569 43.5228 22.2776 43.7799 22.9249 43.7799H37.5664C38.2136 43.7799 38.8344 43.5228 39.2921 43.0651C39.7498 42.6074 40.0069 41.9867 40.0069 41.3394C40.0069 40.6922 39.7498 40.0714 39.2921 39.6137C38.8344 39.156 38.2136 38.8989 37.5664 38.8989Z" fill="#74ABD1"/>
<path d="M22.9249 34.0197H30.2464C30.8936 34.0197 31.5144 33.7625 31.9721 33.3049C32.4298 32.8472 32.6869 32.2264 32.6869 31.5792C32.6869 30.9319 32.4298 30.3112 31.9721 29.8535C31.5144 29.3958 30.8936 29.1387 30.2464 29.1387H22.9249C22.2776 29.1387 21.6569 29.3958 21.1992 29.8535C20.7415 30.3112 20.4844 30.9319 20.4844 31.5792C20.4844 32.2264 20.7415 32.8472 21.1992 33.3049C21.6569 33.7625 22.2776 34.0197 22.9249 34.0197Z" fill="#74ABD1"/>
<path d="M49.1351 20.1848L35.8601 5.54332C35.6322 5.28993 35.3538 5.08707 35.0427 4.94782C34.7317 4.80857 34.3949 4.73601 34.0541 4.73482H16.9721C16.1613 4.72511 15.3565 4.87521 14.6038 5.17654C13.851 5.47787 13.1649 5.92454 12.5848 6.49104C12.0046 7.05753 11.5418 7.73276 11.2226 8.47816C10.9034 9.22355 10.7342 10.0245 10.7246 10.8353V47.4353C10.7342 48.2461 10.9034 49.0471 11.2226 49.7925C11.5418 50.5379 12.0046 51.2131 12.5848 51.7796C13.1649 52.3461 13.851 52.7928 14.6038 53.0941C15.3565 53.3954 16.1613 53.5455 16.9721 53.5358H43.5221C45.1588 53.5554 46.7363 52.9243 47.9079 51.7812C49.0794 50.6381 49.7491 49.0765 49.7696 47.4398V21.8168C49.768 21.212 49.5419 20.6294 49.1351 20.1818V20.1848ZM35.1281 12.0563L41.8151 19.3778H36.9341C36.679 19.3617 36.4297 19.295 36.2006 19.1816C35.9716 19.0682 35.7673 18.9104 35.5998 18.7174C35.4323 18.5243 35.3049 18.2999 35.2249 18.0571C35.145 17.8144 35.1141 17.5581 35.1341 17.3033L35.1281 12.0563ZM43.5281 48.6563H16.9721C16.8022 48.6662 16.6321 48.6426 16.4714 48.5866C16.3107 48.5306 16.1627 48.4435 16.0357 48.3302C15.9088 48.2169 15.8054 48.0797 15.7316 47.9264C15.6578 47.7731 15.615 47.6067 15.6056 47.4368V10.8353C15.615 10.6654 15.6578 10.4991 15.7316 10.3457C15.8054 10.1924 15.9088 10.0552 16.0357 9.94191C16.1627 9.82862 16.3107 9.74149 16.4714 9.68554C16.6321 9.62958 16.8022 9.60589 16.9721 9.61582H30.2471V17.3033C30.2076 19.1011 30.8808 20.8414 32.1199 22.1446C33.3589 23.4477 35.0632 24.2078 36.8606 24.2588H44.8886V47.4398C44.8792 47.6097 44.8364 47.7761 44.7626 47.9294C44.6888 48.0827 44.5855 48.2199 44.4585 48.3332C44.3316 48.4465 44.1835 48.5336 44.0228 48.5896C43.8621 48.6456 43.692 48.6693 43.5221 48.6593L43.5281 48.6563Z" fill="#74ABD1"/>
</svg>
