<svg width="65" height="65" viewBox="0 0 65 65" fill="none" xmlns="http://www.w3.org/2000/svg">
<path d="M56.3063 30.7125L47.2605 12.6208C46.5849 11.2676 45.545 10.1299 44.2579 9.33558C42.9708 8.54129 41.4875 8.12204 39.975 8.12502H25.025C23.5126 8.12204 22.0293 8.54129 20.7422 9.33558C19.4551 10.1299 18.4152 11.2676 17.7396 12.6208L8.69379 30.7125C8.31651 31.4695 8.12173 32.3043 8.12504 33.15V48.75C8.12504 50.9049 8.98107 52.9715 10.5048 54.4953C12.0285 56.019 14.0952 56.875 16.25 56.875H48.75C50.9049 56.875 52.9715 56.019 54.4953 54.4953C56.019 52.9715 56.875 50.9049 56.875 48.75V33.15C56.8784 32.3043 56.6836 31.4695 56.3063 30.7125ZM22.5875 15.0313C22.8147 14.5805 23.1632 14.2022 23.5939 13.939C24.0246 13.6758 24.5203 13.5382 25.025 13.5417H39.975C40.4798 13.5382 40.9755 13.6758 41.4061 13.939C41.8368 14.2022 42.1854 14.5805 42.4125 15.0313L49.7792 29.7917H15.2209L22.5875 15.0313ZM48.75 51.4583H16.25C15.5317 51.4583 14.8429 51.173 14.335 50.6651C13.827 50.1572 13.5417 49.4683 13.5417 48.75V35.2083H51.4584V48.75C51.4584 49.4683 51.173 50.1572 50.6651 50.6651C50.1572 51.173 49.4683 51.4583 48.75 51.4583Z" fill="#69BC8B"/>
<path d="M43.3346 40.625H32.5013C31.783 40.625 31.0941 40.9103 30.5862 41.4183C30.0783 41.9262 29.793 42.615 29.793 43.3333C29.793 44.0516 30.0783 44.7405 30.5862 45.2484C31.0941 45.7563 31.783 46.0417 32.5013 46.0417H43.3346C44.0529 46.0417 44.7418 45.7563 45.2497 45.2484C45.7576 44.7405 46.043 44.0516 46.043 43.3333C46.043 42.615 45.7576 41.9262 45.2497 41.4183C44.7418 40.9103 44.0529 40.625 43.3346 40.625Z" fill="#69BC8B"/>
<path d="M21.6654 46.0417C23.1611 46.0417 24.3737 44.8291 24.3737 43.3333C24.3737 41.8376 23.1611 40.625 21.6654 40.625C20.1696 40.625 18.957 41.8376 18.957 43.3333C18.957 44.8291 20.1696 46.0417 21.6654 46.0417Z" fill="#69BC8B"/>
</svg>
