<svg width="55" height="55" viewBox="0 0 55 55" fill="none" xmlns="http://www.w3.org/2000/svg">
<path d="M43.4108 45.6968H11.4235C10.8175 45.6968 10.2364 45.9375 9.80788 46.366C9.37939 46.7945 9.13867 47.3756 9.13867 47.9816C9.13867 48.5876 9.37939 49.1687 9.80788 49.5972C10.2364 50.0257 10.8175 50.2664 11.4235 50.2664H43.4108C44.0168 50.2664 44.598 50.0257 45.0264 49.5972C45.4549 49.1687 45.6956 48.5876 45.6956 47.9816C45.6956 47.3756 45.4549 46.7945 45.0264 46.366C44.598 45.9375 44.0168 45.6968 43.4108 45.6968Z" fill="#69BC8B"/>
<path d="M11.4233 41.1262H11.629L21.1566 40.2579C22.2003 40.154 23.1765 39.6941 23.9212 38.9556L44.4845 18.3923C45.2827 17.5491 45.714 16.424 45.684 15.2633C45.654 14.1027 45.1652 13.0013 44.3246 12.2005L38.0642 5.94009C37.2471 5.17261 36.1765 4.73224 35.0559 4.70275C33.9353 4.67327 32.8429 5.05671 31.9866 5.78015L11.4233 26.3434C10.6848 27.0882 10.2249 28.0644 10.121 29.1081L9.13851 38.6357C9.10773 38.9704 9.15115 39.3077 9.26568 39.6237C9.38021 39.9396 9.56303 40.2264 9.8011 40.4636C10.0146 40.6753 10.2678 40.8429 10.5462 40.9566C10.8245 41.0703 11.1226 41.1279 11.4233 41.1262ZM34.8883 9.13882L41.1259 15.3764L36.5562 19.8317L30.4329 13.7084L34.8883 9.13882ZM14.5535 29.4965L27.417 16.7244L33.586 22.8934L20.791 35.6883L13.9366 36.3281L14.5535 29.4965Z" fill="#69BC8B"/>
</svg>
