<svg width="60" height="60" viewBox="0 0 60 60" fill="none" xmlns="http://www.w3.org/2000/svg">
<path d="M22.5 27.5C24.4778 27.5 26.4112 26.9135 28.0557 25.8147C29.7002 24.7159 30.9819 23.1541 31.7388 21.3268C32.4957 19.4996 32.6937 17.4889 32.3079 15.5491C31.922 13.6093 30.9696 11.8275 29.5711 10.4289C28.1725 9.03041 26.3907 8.078 24.4509 7.69215C22.5111 7.3063 20.5004 7.50433 18.6732 8.26121C16.8459 9.01809 15.2841 10.2998 14.1853 11.9443C13.0865 13.5888 12.5 15.5222 12.5 17.5C12.5 20.1522 13.5536 22.6957 15.4289 24.5711C17.3043 26.4464 19.8478 27.5 22.5 27.5ZM22.5 12.5C23.4889 12.5 24.4556 12.7932 25.2779 13.3427C26.1001 13.8921 26.741 14.673 27.1194 15.5866C27.4978 16.5002 27.5969 17.5056 27.4039 18.4755C27.211 19.4454 26.7348 20.3363 26.0355 21.0355C25.3363 21.7348 24.4454 22.211 23.4755 22.4039C22.5055 22.5969 21.5002 22.4978 20.5866 22.1194C19.673 21.741 18.8921 21.1001 18.3427 20.2779C17.7932 19.4556 17.5 18.4889 17.5 17.5C17.5 16.1739 18.0268 14.9022 18.9645 13.9645C19.9021 13.0268 21.1739 12.5 22.5 12.5Z" fill="#69BC8B"/>
<path d="M42.5 32.5C43.9834 32.5 45.4334 32.0601 46.6668 31.236C47.9001 30.4119 48.8614 29.2406 49.4291 27.8701C49.9968 26.4997 50.1453 24.9917 49.8559 23.5368C49.5665 22.082 48.8522 20.7456 47.8033 19.6967C46.7544 18.6478 45.418 17.9335 43.9632 17.6441C42.5083 17.3547 41.0003 17.5032 39.6299 18.0709C38.2594 18.6386 37.0881 19.5999 36.264 20.8332C35.4399 22.0666 35 23.5166 35 25C35 26.9891 35.7902 28.8968 37.1967 30.3033C38.6032 31.7098 40.5109 32.5 42.5 32.5ZM42.5 22.5C42.9945 22.5 43.4778 22.6466 43.8889 22.9213C44.3 23.196 44.6205 23.5865 44.8097 24.0433C44.9989 24.5001 45.0484 25.0028 44.952 25.4877C44.8555 25.9727 44.6174 26.4181 44.2678 26.7678C43.9181 27.1174 43.4727 27.3555 42.9877 27.452C42.5028 27.5484 42.0001 27.4989 41.5433 27.3097C41.0865 27.1205 40.696 26.8001 40.4213 26.3889C40.1466 25.9778 40 25.4945 40 25C40 24.337 40.2634 23.7011 40.7322 23.2322C41.2011 22.7634 41.837 22.5 42.5 22.5Z" fill="#69BC8B"/>
<path d="M42.5 34.9998C39.7296 35.0028 37.0386 35.9262 34.85 37.6248C32.4013 35.1857 29.2851 33.5263 25.8946 32.8558C22.504 32.1854 18.9908 32.534 15.7981 33.8576C12.6053 35.1812 9.87603 37.4206 7.95435 40.2934C6.03267 43.1661 5.00468 46.5435 5 49.9998C5 50.6628 5.26339 51.2987 5.73223 51.7675C6.20107 52.2364 6.83696 52.4998 7.5 52.4998C8.16304 52.4998 8.79893 52.2364 9.26777 51.7675C9.73661 51.2987 10 50.6628 10 49.9998C10 46.6846 11.317 43.5051 13.6612 41.1609C16.0054 38.8167 19.1848 37.4998 22.5 37.4998C25.8152 37.4998 28.9946 38.8167 31.3388 41.1609C33.683 43.5051 35 46.6846 35 49.9998C35 50.6628 35.2634 51.2987 35.7322 51.7675C36.2011 52.2364 36.837 52.4998 37.5 52.4998C38.163 52.4998 38.7989 52.2364 39.2678 51.7675C39.7366 51.2987 40 50.6628 40 49.9998C40.006 47.0708 39.2661 44.1886 37.85 41.6248C38.9548 40.7517 40.2831 40.2074 41.6828 40.0539C43.0826 39.9005 44.4972 40.1442 45.7649 40.7572C47.0326 41.3702 48.1021 42.3277 48.8511 43.5201C49.6001 44.7125 49.9982 46.0917 50 47.4998C50 48.1628 50.2634 48.7987 50.7322 49.2675C51.2011 49.7364 51.837 49.9998 52.5 49.9998C53.163 49.9998 53.7989 49.7364 54.2678 49.2675C54.7366 48.7987 55 48.1628 55 47.4998C55 44.1846 53.683 41.0051 51.3388 38.6609C48.9946 36.3167 45.8152 34.9998 42.5 34.9998Z" fill="#69BC8B"/>
</svg>
