<svg width="63" height="63" viewBox="0 0 63 63" fill="none" xmlns="http://www.w3.org/2000/svg">
<path d="M31.5 5.24951C45.9979 5.24951 57.75 17.0016 57.75 31.4995C57.75 45.9974 45.9979 57.7495 31.5 57.7495C17.0021 57.7495 5.25 45.9974 5.25 31.4995C5.25 17.0016 17.0021 5.24951 31.5 5.24951ZM31.5 10.4995C25.9305 10.4995 20.589 12.712 16.6508 16.6503C12.7125 20.5885 10.5 25.93 10.5 31.4995C10.5 37.0691 12.7125 42.4105 16.6508 46.3488C20.589 50.287 25.9305 52.4995 31.5 52.4995C37.0696 52.4995 42.411 50.287 46.3493 46.3488C50.2875 42.4105 52.5 37.0691 52.5 31.4995C52.5 25.93 50.2875 20.5885 46.3493 16.6503C42.411 12.712 37.0696 10.4995 31.5 10.4995ZM44.625 34.1245C44.625 37.6055 43.2422 40.9439 40.7808 43.4053C38.3194 45.8667 34.981 47.2495 31.5 47.2495C28.019 47.2495 24.6806 45.8667 22.2192 43.4053C19.7578 40.9439 18.375 37.6055 18.375 34.1245H44.625Z" fill="#EC8068"/>
</svg>
