<svg width="197" height="196" viewBox="0 0 197 196" fill="none" xmlns="http://www.w3.org/2000/svg">
<g filter="url(#filter0_d)">
<path d="M40.3706 95.6164C39.2661 95.6267 38.3756 96.5309 38.4229 97.6345C38.922 109.281 42.8212 120.544 49.6603 130.02C56.8901 140.038 67.0492 147.566 78.7373 151.568C90.4255 155.569 103.067 155.847 114.92 152.362C126.772 148.877 137.252 141.802 144.914 132.111C152.577 122.42 157.044 110.591 157.702 98.2548C158.359 85.9181 155.174 73.6813 148.585 63.2311C141.995 52.7809 132.327 44.6318 120.912 39.9072C110.114 35.4379 98.2557 34.2412 86.8078 36.4415C85.7231 36.65 85.0486 37.725 85.2933 38.8022L89.6751 58.0908C89.9197 59.1679 90.9907 59.8369 92.0798 59.6525C98.7242 58.5275 105.566 59.2921 111.818 61.8796C118.687 64.7226 124.504 69.6261 128.469 75.9144C132.434 82.2027 134.351 89.566 133.956 96.9894C133.56 104.413 130.871 111.531 126.261 117.362C121.65 123.193 115.344 127.451 108.212 129.548C101.08 131.645 93.4729 131.478 86.4397 129.07C79.4066 126.662 73.2935 122.132 68.9431 116.104C64.9836 110.617 62.6617 104.136 62.224 97.4115C62.1523 96.3092 61.2543 95.4214 60.1498 95.4317L40.3706 95.6164Z" fill="white"/>
</g>
<defs>
<filter id="filter0_d" x="0.463867" y="0.114258" width="195.691" height="195.041" filterUnits="userSpaceOnUse" color-interpolation-filters="sRGB">
<feFlood flood-opacity="0" result="BackgroundImageFix"/>
<feColorMatrix in="SourceAlpha" type="matrix" values="0 0 0 0 0 0 0 0 0 0 0 0 0 0 0 0 0 0 127 0"/>
<feOffset dy="2"/>
<feGaussianBlur stdDeviation="10"/>
<feColorMatrix type="matrix" values="0 0 0 0 0.439216 0 0 0 0 0.564706 0 0 0 0 0.690196 0 0 0 0.149 0"/>
<feBlend mode="normal" in2="BackgroundImageFix" result="effect1_dropShadow"/>
<feBlend mode="normal" in="SourceGraphic" in2="effect1_dropShadow" result="shape"/>
</filter>
</defs>
</svg>
