<svg width="150" height="148" viewBox="0 0 150 148" fill="none" xmlns="http://www.w3.org/2000/svg">
<g filter="url(#filter0_d)">
<path d="M112.102 62.1586C112.712 61.2376 112.461 59.9943 111.525 59.4075C100.336 52.3927 87.5859 48.2284 74.3927 47.2953C61.1995 46.3621 47.9898 48.6902 35.9253 54.0603C34.9161 54.5095 34.4925 55.7051 34.9666 56.7027L47.0286 82.0868C47.5027 83.0845 48.6944 83.5048 49.7107 83.0723C56.7715 80.0673 64.4542 78.7767 72.1276 79.3194C79.8011 79.8622 87.2256 82.2214 93.7931 86.1903C94.7384 86.7616 95.9774 86.5131 96.5872 85.5921L112.102 62.1586Z" fill="#E7D9FC"/>
</g>
<defs>
<filter id="filter0_d" x="0.72168" y="0.783203" width="148.539" height="146.69" filterUnits="userSpaceOnUse" color-interpolation-filters="sRGB">
<feFlood flood-opacity="0" result="BackgroundImageFix"/>
<feColorMatrix in="SourceAlpha" type="matrix" values="0 0 0 0 0 0 0 0 0 0 0 0 0 0 0 0 0 0 127 0"/>
<feOffset dy="10"/>
<feGaussianBlur stdDeviation="15"/>
<feColorMatrix type="matrix" values="0 0 0 0 0.439216 0 0 0 0 0.564706 0 0 0 0 0.690196 0 0 0 0.302 0"/>
<feBlend mode="normal" in2="BackgroundImageFix" result="effect1_dropShadow"/>
<feBlend mode="normal" in="SourceGraphic" in2="effect1_dropShadow" result="shape"/>
</filter>
</defs>
</svg>
