<svg width="24" height="24" viewBox="0 0 24 24" fill="none" xmlns="http://www.w3.org/2000/svg">
<path d="M14.33 20.0002H14.12C13.6968 19.9582 13.2979 19.7824 12.9814 19.4983C12.6649 19.2141 12.4472 18.8365 12.36 18.4202L9.68 6.00023L6.92 12.4002C6.84193 12.5791 6.71323 12.7312 6.54975 12.8378C6.38627 12.9445 6.19517 13.0009 6 13.0002H3C2.73478 13.0002 2.48043 12.8949 2.29289 12.7073C2.10536 12.5198 2 12.2654 2 12.0002C2 11.735 2.10536 11.4807 2.29289 11.2931C2.48043 11.1056 2.73478 11.0002 3 11.0002H5.34L7.85 5.21023C8.01896 4.82169 8.30695 4.49685 8.67244 4.28254C9.03793 4.06823 9.46203 3.97552 9.88361 4.01779C10.3052 4.06006 10.7024 4.23512 11.0181 4.51772C11.3338 4.80033 11.5515 5.17588 11.64 5.59023L14.32 18.0002L17.08 11.6202C17.155 11.4376 17.2824 11.2813 17.4461 11.1709C17.6099 11.0606 17.8026 11.0012 18 11.0002H21C21.2652 11.0002 21.5196 11.1056 21.7071 11.2931C21.8946 11.4807 22 11.735 22 12.0002C22 12.2654 21.8946 12.5198 21.7071 12.7073C21.5196 12.8949 21.2652 13.0002 21 13.0002H18.66L16.15 18.7902C15.9967 19.1467 15.7431 19.451 15.4199 19.6658C15.0967 19.8807 14.718 19.9969 14.33 20.0002Z" fill="#3B3B44"/>
</svg>
