<svg width="24" height="24" viewBox="0 0 24 24" fill="none" xmlns="http://www.w3.org/2000/svg">
<path d="M20.5196 15.2101L18.7196 13.4001V8.94014C18.7435 7.28396 18.1674 5.67505 17.0977 4.41048C16.028 3.1459 14.5368 2.31107 12.8996 2.06014C11.9494 1.93501 10.9834 2.01395 10.0662 2.29171C9.14893 2.56947 8.30146 3.03966 7.58031 3.6709C6.85916 4.30214 6.28093 5.07992 5.88419 5.95233C5.48745 6.82475 5.28133 7.77175 5.27958 8.73014V13.4001L3.47958 15.2101C3.25349 15.44 3.10017 15.7314 3.03879 16.0479C2.9774 16.3645 3.01068 16.6921 3.13446 16.9898C3.25824 17.2875 3.46704 17.5421 3.73474 17.7218C4.00244 17.9015 4.31717 17.9983 4.63958 18.0001H7.99958V18.3401C8.04629 19.3553 8.49354 20.3106 9.24331 20.9967C9.99308 21.6827 10.9842 22.0436 11.9996 22.0001C13.0149 22.0436 14.0061 21.6827 14.7559 20.9967C15.5056 20.3106 15.9529 19.3553 15.9996 18.3401V18.0001H19.3596C19.682 17.9983 19.9967 17.9015 20.2644 17.7218C20.5321 17.5421 20.7409 17.2875 20.8647 16.9898C20.9885 16.6921 21.0218 16.3645 20.9604 16.0479C20.899 15.7314 20.7457 15.44 20.5196 15.2101ZM13.9996 18.3401C13.9441 18.8211 13.7052 19.2622 13.3327 19.5714C12.9601 19.8807 12.4826 20.0342 11.9996 20.0001C11.5166 20.0342 11.0391 19.8807 10.6665 19.5714C10.2939 19.2622 10.055 18.8211 9.99958 18.3401V18.0001H13.9996V18.3401ZM5.50958 16.0001L6.68958 14.8201C6.87675 14.6341 7.02525 14.4128 7.12651 14.1691C7.22777 13.9254 7.27979 13.6641 7.27958 13.4001V8.73014C7.28013 8.05554 7.42497 7.38886 7.70438 6.77485C7.98379 6.16083 8.39131 5.61369 8.89958 5.17014C9.401 4.71582 9.99516 4.37589 10.6409 4.17387C11.2867 3.97185 11.9686 3.91257 12.6396 4.00014C13.7961 4.18791 14.8458 4.78715 15.5955 5.68752C16.3452 6.58789 16.7444 7.72878 16.7196 8.90014V13.4001C16.7181 13.6634 16.7685 13.9243 16.868 14.168C16.9676 14.4116 17.1142 14.6333 17.2996 14.8201L18.4896 16.0001H5.50958Z" fill="#3B3B44"/>
</svg>
