<svg width="755" height="986" viewBox="0 0 755 986" fill="none" xmlns="http://www.w3.org/2000/svg">
<path opacity="0.7" d="M688.86 -285.084C688.776 -286.185 687.814 -287.011 686.713 -286.923C575.108 -278.053 468.931 -234.992 382.662 -163.582C295.879 -91.7468 233.515 5.23869 204.166 114.006C174.817 222.773 179.929 337.965 218.797 443.705C257.664 549.445 328.374 640.525 421.179 704.391C513.984 768.257 624.315 801.764 736.962 800.292C849.61 798.821 959.027 762.444 1050.13 696.177C1141.24 629.909 1209.54 537.013 1245.64 430.294C1281.52 324.207 1283.81 209.654 1252.22 102.244C1251.91 101.184 1250.8 100.581 1249.74 100.896L1120.29 139.48C1119.23 139.795 1118.63 140.91 1118.94 141.97C1142.3 221.803 1140.55 306.909 1113.89 385.737C1087.02 465.197 1036.16 534.365 968.324 583.706C900.49 633.047 819.02 660.132 735.146 661.228C651.272 662.323 569.123 637.375 500.022 589.822C430.922 542.269 378.274 474.453 349.334 395.722C320.394 316.991 316.588 231.222 338.44 150.237C360.292 69.2521 406.727 -2.96073 471.343 -56.4473C535.446 -109.509 614.31 -141.548 697.223 -148.243C698.323 -148.332 699.15 -149.292 699.066 -150.393L688.86 -285.084Z" fill="url(#paint0_linear)"/>
<defs>
<linearGradient id="paint0_linear" x1="730" y1="688" x2="159.5" y2="300" gradientUnits="userSpaceOnUse">
<stop stop-color="#5E26CE"/>
<stop offset="1" stop-color="#A333F5"/>
</linearGradient>
</defs>
</svg>
