<svg width="508" height="635" viewBox="0 0 508 635" fill="none" xmlns="http://www.w3.org/2000/svg">
<rect x="31" width="477" height="489" rx="40" fill="#BD67BF"/>
<g filter="url(#filter0_d)">
<rect x="22" y="225" width="437.325" height="385.375" rx="27.0343" fill="white"/>
<g style="mix-blend-mode:multiply">
<path d="M203.666 497.154C218.939 497.154 231.32 490.398 231.32 482.065C231.32 473.731 218.939 466.975 203.666 466.975C188.392 466.975 176.011 473.731 176.011 482.065C176.011 490.398 188.392 497.154 203.666 497.154Z" fill="#87E1FF"/>
</g>
<path d="M228.538 433.982C229.022 433.71 228.901 432.833 228.901 432.833L209.789 423.413C209.668 423.897 209.653 425.137 210.288 425.545C213.086 427.344 211.8 430.807 211.619 432.727C211.271 437.414 214.023 437.354 214.522 437.611L214.628 434.799C214.809 432.984 214.628 430.263 216.457 430.142C217.268 430.066 218.082 430.229 218.801 430.61L226.013 434.39C226.297 434.525 226.607 434.595 226.921 434.595C227.234 434.595 227.544 434.525 227.828 434.39L228.538 433.982Z" fill="#ECEEF7"/>
<path d="M228.538 433.271C229.022 432.999 229.037 432.546 228.538 432.228L215.958 422.838C215.32 422.408 214.601 422.11 213.845 421.962C213.09 421.814 212.312 421.819 211.558 421.977C211.033 422.171 210.546 422.458 210.122 422.823C209.29 423.474 209.986 424.441 211.634 425.303L226.013 433.68C226.297 433.814 226.606 433.884 226.92 433.884C227.234 433.884 227.544 433.814 227.828 433.68L228.538 433.271Z" fill="white"/>
<path d="M176.45 416.11C175.43 417.666 174.726 419.408 174.378 421.236C174.197 424.422 174.283 427.619 174.635 430.792C174.947 434.979 175.812 439.108 177.206 443.069C178.264 446.093 180.729 449.903 182.997 451.158C188.334 454.182 203.077 421.871 203.107 406.372C203.093 405.855 202.947 405.35 202.682 404.905C202.418 404.46 202.043 404.091 201.595 403.832C187.472 399.357 176.45 416.11 176.45 416.11Z" fill="#ECEEF7"/>
<path d="M190.255 406.267C186.846 407.972 183.809 410.336 181.319 413.222C179.207 415.325 177.554 417.842 176.465 420.616C175.852 423.847 175.771 427.157 176.223 430.414C176.569 434.845 177.615 439.193 179.323 443.296C180.693 446.352 182.668 449.099 185.129 451.371C186.112 451.628 184.298 429.174 185.129 417.698C185.642 417.245 186.217 416.868 186.838 416.579C193.717 413.555 207.25 410.697 207.25 408.717C207.295 407.613 201.081 401.035 190.255 406.267Z" fill="#6200EA"/>
<path d="M207.476 424.184C207.825 427.286 209.148 430.198 211.256 432.5C212.511 433.65 207.718 436.689 200.672 440.544C190.088 446.381 184.599 445.474 183.964 445.594C182.589 443.541 181.567 441.272 180.94 438.881C180.346 436.602 179.887 434.289 179.564 431.956C179.224 429.259 179.143 426.534 179.323 423.821C179.489 421.342 181.303 416.836 186.308 412.648C189.755 409.628 193.92 407.545 198.404 406.6C200.851 406.118 203.38 406.269 205.753 407.038C206.291 407.24 206.749 407.612 207.058 408.098C207.366 408.583 207.508 409.156 207.461 409.729C206.988 414.536 206.993 419.378 207.476 424.184Z" fill="#4A04B7"/>
<path d="M197.33 474.081C197.33 474.081 196.695 478.692 198.963 480.008C200.235 480.653 201.641 480.99 203.068 480.99C204.495 480.99 205.901 480.653 207.173 480.008C209.441 478.708 208.912 474.066 208.912 474.066C206.644 472.75 199.568 472.781 197.33 474.081Z" fill="#CACDDE"/>
<path d="M185.16 467.776C185.418 469.565 186.27 471.216 187.579 472.463C187.579 472.463 189.424 472.07 189.348 470.543C189.318 469.893 189.131 469.26 188.805 468.697C188.479 468.134 188.022 467.657 187.474 467.307C187.08 467.181 186.661 467.158 186.256 467.24C185.851 467.322 185.474 467.507 185.16 467.776Z" fill="#1B1B21"/>
<path d="M184.569 469C184.617 469.64 184.81 470.261 185.135 470.814C185.46 471.367 185.908 471.838 186.444 472.191C187.488 472.781 188.319 472.297 188.319 471.102C188.286 470.453 188.098 469.821 187.772 469.258C187.446 468.695 186.991 468.218 186.444 467.866C185.416 467.322 184.569 467.806 184.569 469Z" fill="#464652"/>
<path d="M183.692 468.638C183.692 469.363 184.524 470.346 185.204 471.42L188.092 469.908C187.971 469.463 187.756 469.049 187.462 468.694C187.167 468.339 186.799 468.052 186.384 467.851C185.023 467.216 183.692 468.638 183.692 468.638Z" fill="#1B1B21"/>
<path d="M182.936 469.046C183.194 470.827 184.047 472.468 185.355 473.703C185.355 473.703 187.184 473.31 187.124 471.798C187.092 471.146 186.905 470.511 186.579 469.946C186.253 469.381 185.797 468.901 185.249 468.547C184.856 468.4 184.429 468.369 184.019 468.457C183.609 468.546 183.233 468.75 182.936 469.046Z" fill="#1B1B21"/>
<path d="M182.347 470.286C182.38 470.935 182.567 471.567 182.893 472.13C183.219 472.693 183.675 473.169 184.222 473.521C185.25 474.111 186.096 473.627 186.096 472.433C186.063 471.779 185.876 471.143 185.55 470.575C185.224 470.008 184.769 469.525 184.222 469.167C183.178 468.607 182.347 469.167 182.347 470.286Z" fill="#464652"/>
<path d="M183.616 471.027C183.63 471.263 183.698 471.492 183.816 471.697C183.934 471.902 184.099 472.076 184.297 472.206C184.675 472.433 184.977 472.206 184.977 471.813C184.964 471.577 184.895 471.347 184.777 471.142C184.659 470.937 184.494 470.763 184.297 470.633C183.919 470.422 183.616 470.679 183.616 471.027Z" fill="#1B1B21"/>
<path d="M184.252 472.206L184.524 471.828L184.252 471.148L183.722 470.83L183.45 471.208L183.722 471.904L184.252 472.206Z" fill="#CACDDE"/>
<path d="M184.524 471.828L184.917 471.661L184.66 470.966L184.252 471.147L184.524 471.828Z" fill="#CCD0E0"/>
<path d="M184.252 472.206L184.66 472.04L184.917 471.662L184.524 471.828L184.252 472.206Z" fill="#A3A8C2"/>
<path d="M183.723 470.83L184.252 471.147L184.66 470.966L184.116 470.664L183.723 470.83Z" fill="#ECEEF7"/>
<path d="M184.115 468.29L197.27 478.224C198.51 479.01 199.462 479.736 200.294 479.343L202.169 478.239C202.925 477.8 202.335 476.818 200.959 476.122L185.234 466.899C185.034 466.825 184.816 466.814 184.608 466.865C184.401 466.916 184.213 467.028 184.07 467.186C184.07 467.186 183.843 468.078 184.115 468.29Z" fill="#CACDDE"/>
<path d="M184.298 466.793C184.209 466.826 184.132 466.886 184.078 466.965C184.024 467.043 183.995 467.136 183.995 467.231C183.995 467.327 184.024 467.42 184.078 467.498C184.132 467.576 184.209 467.636 184.298 467.67L196.394 474.927C196.394 474.927 197.906 475.986 196.394 477.422C195.306 478.405 200.93 476.938 201.702 476.485L202.82 475.835C203.576 475.396 203.833 474.746 202.458 474.035L200.507 473.053L186.43 466.43C186.194 466.318 185.936 466.26 185.674 466.26C185.413 466.26 185.155 466.318 184.918 466.43L184.298 466.793Z" fill="white"/>
<path d="M221.614 467.655C221.361 469.449 220.502 471.103 219.18 472.342C219.18 472.342 217.335 471.964 217.41 470.437C217.428 469.781 217.601 469.138 217.917 468.562C218.232 467.986 218.681 467.494 219.225 467.126C219.634 466.995 220.071 466.975 220.491 467.068C220.91 467.161 221.298 467.364 221.614 467.655Z" fill="#1B1B21"/>
<path d="M222.249 468.834C222.215 469.484 222.028 470.116 221.702 470.678C221.376 471.241 220.921 471.718 220.374 472.07C219.346 472.675 218.499 472.191 218.499 470.996C218.537 470.346 218.727 469.713 219.052 469.149C219.377 468.585 219.83 468.104 220.374 467.745C221.357 467.156 222.249 467.655 222.249 468.834Z" fill="#464652"/>
<path d="M223.081 468.456C223.081 469.182 222.234 470.165 221.569 471.253L218.681 469.741C218.802 469.288 219.02 468.867 219.321 468.507C219.621 468.146 219.996 467.856 220.419 467.655C221.735 467.035 223.081 468.456 223.081 468.456Z" fill="#1B1B21"/>
<path d="M223.837 468.88C223.583 470.666 222.73 472.313 221.418 473.552C221.418 473.552 219.573 473.174 219.649 471.647C219.677 470.996 219.862 470.362 220.189 469.799C220.515 469.235 220.973 468.759 221.524 468.411C221.913 468.253 222.34 468.212 222.751 468.296C223.163 468.379 223.54 468.582 223.837 468.88Z" fill="#1B1B21"/>
<path d="M224.426 470.104C224.39 470.753 224.201 471.384 223.876 471.947C223.55 472.509 223.096 472.986 222.551 473.34C221.507 473.945 220.676 473.461 220.676 472.267C220.71 471.615 220.898 470.982 221.224 470.417C221.55 469.852 222.004 469.372 222.551 469.016C223.579 468.426 224.426 468.91 224.426 470.104Z" fill="#464652"/>
<path d="M223.141 470.86C223.128 471.096 223.059 471.326 222.941 471.531C222.823 471.736 222.658 471.91 222.461 472.04C222.083 472.251 221.78 472.04 221.78 471.647C221.794 471.41 221.862 471.181 221.98 470.976C222.098 470.771 222.263 470.597 222.461 470.467C222.839 470.24 223.141 470.422 223.141 470.86Z" fill="#1B1B21"/>
<path d="M222.506 472.039L222.233 471.661L222.506 470.966L223.05 470.664L223.307 471.042L223.05 471.722L222.506 472.039Z" fill="#CACDDE"/>
<path d="M222.234 471.662L221.841 471.48L222.113 470.785L222.506 470.966L222.234 471.662Z" fill="#CCD0E0"/>
<path d="M222.506 472.039L222.113 471.858L221.841 471.48L222.234 471.661L222.506 472.039Z" fill="#A3A8C2"/>
<path d="M223.05 470.664L222.505 470.966L222.112 470.785L222.642 470.482L223.05 470.664Z" fill="#ECEEF7"/>
<path d="M222.642 468.109L209.487 478.043C208.248 478.829 207.31 479.555 206.554 479.161L204.664 478.058C203.923 477.619 204.513 476.651 205.889 475.941L221.659 466.869C221.83 466.759 222.034 466.715 222.235 466.746C222.435 466.777 222.618 466.879 222.748 467.035C222.748 467.035 223.05 467.867 222.642 468.109Z" fill="#CACDDE"/>
<path d="M222.476 466.612C222.565 466.645 222.642 466.705 222.696 466.783C222.75 466.862 222.779 466.955 222.779 467.05C222.779 467.145 222.75 467.238 222.696 467.317C222.642 467.395 222.565 467.455 222.476 467.488L209.745 475.215L208.051 476.304C207.61 476.619 207.081 476.788 206.539 476.788C205.997 476.788 205.468 476.619 205.027 476.304L203.908 475.638C203.152 475.2 198.662 472.191 200.053 472.856C201.14 473.341 202.325 473.57 203.515 473.526C204.705 473.481 205.869 473.164 206.917 472.599L220.299 466.249C220.534 466.135 220.793 466.076 221.055 466.076C221.316 466.076 221.575 466.135 221.811 466.249L222.476 466.612Z" fill="white"/>
<path d="M187.367 486.525C187.081 488.5 186.138 490.321 184.691 491.696C184.691 491.696 182.665 491.257 182.74 489.579C182.777 488.864 182.983 488.168 183.34 487.548C183.698 486.928 184.197 486.401 184.797 486.011C185.233 485.869 185.699 485.841 186.149 485.931C186.599 486.021 187.019 486.226 187.367 486.525Z" fill="#1B1B21"/>
<path d="M188.001 487.885C187.966 488.599 187.763 489.294 187.408 489.914C187.053 490.534 186.557 491.062 185.96 491.454C184.811 492.119 183.889 491.575 183.889 490.259C183.927 489.543 184.135 488.846 184.495 488.226C184.855 487.606 185.357 487.08 185.96 486.691C187.079 486.026 188.001 486.555 188.001 487.885Z" fill="#464652"/>
<path d="M188.984 487.477C188.984 488.264 188.062 489.352 187.366 490.501L184.176 488.823C184.313 488.335 184.55 487.881 184.873 487.49C185.196 487.1 185.597 486.781 186.051 486.555C187.472 485.905 188.984 487.477 188.984 487.477Z" fill="#1B1B21"/>
<path d="M189.831 487.931C189.545 489.906 188.602 491.728 187.155 493.102C187.155 493.102 185.113 492.663 185.204 490.985C185.241 490.27 185.447 489.574 185.804 488.954C186.161 488.334 186.66 487.807 187.26 487.417C187.692 487.241 188.166 487.195 188.623 487.287C189.08 487.378 189.5 487.602 189.831 487.931Z" fill="#1B1B21"/>
<path d="M190.497 489.292C190.46 490.007 190.254 490.703 189.897 491.323C189.54 491.943 189.041 492.47 188.441 492.86C187.291 493.526 186.369 492.981 186.369 491.666C186.408 490.95 186.616 490.253 186.976 489.633C187.336 489.012 187.838 488.486 188.441 488.098C189.544 487.432 190.497 487.961 190.497 489.292Z" fill="#464652"/>
<path d="M189.06 490.124C189.045 490.384 188.969 490.638 188.838 490.864C188.706 491.09 188.524 491.282 188.304 491.424C187.896 491.651 187.563 491.424 187.563 490.985C187.577 490.726 187.651 490.473 187.779 490.247C187.908 490.021 188.088 489.829 188.304 489.685C188.728 489.443 189.06 489.64 189.06 490.124Z" fill="#1B1B21"/>
<path d="M188.365 491.424L188.062 491L188.365 490.244L188.955 489.896L189.242 490.32L188.955 491.076L188.365 491.424Z" fill="#CACDDE"/>
<path d="M188.063 491L187.624 490.804L187.926 490.048L188.365 490.244L188.063 491Z" fill="#CCD0E0"/>
<path d="M188.365 491.424L187.926 491.227L187.624 490.804L188.063 491L188.365 491.424Z" fill="#A3A8C2"/>
<path d="M188.955 489.897L188.365 490.245L187.927 490.048L188.516 489.7L188.955 489.897Z" fill="#ECEEF7"/>
<path d="M185.008 488.4C185.258 488.519 185.532 488.581 185.809 488.581C186.086 488.581 186.36 488.519 186.61 488.4L202.003 480.643C203.515 479.902 203.893 478.965 203.651 477.846L203.409 477.135C202.607 476.666 199.281 477.422 197.996 478.254L183.919 486.51V487.387C183.919 487.704 183.919 487.795 184.403 488.037L185.008 488.4Z" fill="#CACDDE"/>
<path d="M184.872 487.402C185.122 487.521 185.396 487.583 185.673 487.583C185.95 487.583 186.224 487.521 186.474 487.402L200.703 479.101L202.305 478.254C203.742 477.513 204.331 476.47 203.53 476.016L202.335 475.336C201.677 475.158 200.987 475.131 200.317 475.257C199.647 475.383 199.014 475.658 198.465 476.062L196.287 477.483L184.191 486.117C184.1 486.154 184.022 486.218 183.967 486.3C183.912 486.383 183.883 486.479 183.883 486.578C183.883 486.677 183.912 486.773 183.967 486.855C184.022 486.937 184.1 487.001 184.191 487.039L184.872 487.402Z" fill="white"/>
<path d="M218.847 486.948C219.131 488.92 220.074 490.737 221.523 492.104C221.523 492.104 223.549 491.681 223.473 490.002C223.439 489.285 223.234 488.586 222.877 487.963C222.519 487.34 222.019 486.811 221.417 486.419C220.979 486.278 220.513 486.252 220.062 486.345C219.612 486.437 219.193 486.645 218.847 486.948Z" fill="#1B1B21"/>
<path d="M218.212 488.294C218.251 489.006 218.458 489.699 218.815 490.316C219.172 490.934 219.67 491.458 220.268 491.847C221.417 492.497 222.34 491.968 222.34 490.652C222.303 489.934 222.097 489.234 221.737 488.611C221.376 487.988 220.873 487.459 220.268 487.069C219.134 486.449 218.212 486.978 218.212 488.294Z" fill="#464652"/>
<path d="M217.229 487.886C217.229 488.687 218.152 489.776 218.847 490.91L222.038 489.201C221.905 488.711 221.669 488.255 221.346 487.864C221.023 487.473 220.619 487.155 220.163 486.933C218.696 486.328 217.229 487.886 217.229 487.886Z" fill="#1B1B21"/>
<path d="M216.382 488.339C216.666 490.315 217.609 492.137 219.058 493.51C219.058 493.51 221.099 493.087 221.009 491.409C220.974 490.691 220.77 489.992 220.412 489.369C220.055 488.746 219.554 488.217 218.952 487.825C218.52 487.653 218.047 487.61 217.591 487.701C217.135 487.792 216.715 488.014 216.382 488.339Z" fill="#1B1B21"/>
<path d="M215.747 489.7C215.771 490.432 215.972 491.147 216.333 491.784C216.694 492.421 217.204 492.962 217.819 493.359C218.953 494.009 219.875 493.48 219.875 492.165C219.84 491.447 219.636 490.748 219.278 490.125C218.921 489.502 218.421 488.973 217.819 488.581C216.669 487.855 215.747 488.385 215.747 489.7Z" fill="#464652"/>
<path d="M217.152 490.531C217.165 490.793 217.24 491.047 217.372 491.274C217.503 491.5 217.687 491.691 217.908 491.832C218.317 492.074 218.649 491.832 218.649 491.393C218.634 491.134 218.559 490.882 218.43 490.657C218.302 490.431 218.123 490.238 217.908 490.093C217.485 489.851 217.152 490.047 217.152 490.531Z" fill="#1B1B21"/>
<path d="M217.85 491.832L218.152 491.424L217.85 490.652L217.26 490.32L216.973 490.728L217.26 491.499L217.85 491.832Z" fill="#CACDDE"/>
<path d="M218.151 491.424L218.59 491.227L218.287 490.456L217.849 490.653L218.151 491.424Z" fill="#CCD0E0"/>
<path d="M217.849 491.832L218.287 491.65L218.59 491.227L218.151 491.424L217.849 491.832Z" fill="#A3A8C2"/>
<path d="M217.259 490.32L217.848 490.653L218.287 490.456L217.697 490.124L217.259 490.32Z" fill="#ECEEF7"/>
<path d="M221.206 488.823C220.956 488.942 220.682 489.004 220.405 489.004C220.127 489.004 219.854 488.942 219.603 488.823L204.891 481.49C203.47 480.749 203.001 479.811 203.243 478.692L203.485 477.982C204.287 477.513 207.628 478.269 208.913 479.101L222.249 486.993V487.825C222.249 488.143 222.249 488.218 221.781 488.46L221.206 488.823Z" fill="#CACDDE"/>
<path d="M221.342 487.825C221.091 487.945 220.817 488.007 220.54 488.007C220.263 488.007 219.989 487.945 219.739 487.825L204.619 479.116C204.089 478.838 203.508 478.675 202.911 478.636C202.315 478.597 201.717 478.683 201.156 478.889C199.644 479.464 210.863 474.096 209.805 475.2C209.652 475.344 209.533 475.52 209.456 475.716C209.38 475.912 209.347 476.122 209.362 476.332C209.376 476.541 209.437 476.745 209.54 476.929C209.643 477.112 209.785 477.27 209.956 477.392L222.052 486.54C222.143 486.578 222.221 486.642 222.276 486.724C222.331 486.806 222.361 486.902 222.361 487.001C222.361 487.1 222.331 487.196 222.276 487.279C222.221 487.361 222.143 487.425 222.052 487.462L221.342 487.825Z" fill="white"/>
<path d="M199.962 473.567C199.573 473.695 199.233 473.943 198.993 474.276C198.752 474.609 198.623 475.008 198.623 475.419C198.623 475.829 198.752 476.229 198.993 476.562C199.233 476.894 199.573 477.142 199.962 477.271C200.96 477.778 202.063 478.043 203.183 478.043C204.302 478.043 205.406 477.778 206.403 477.271C206.793 477.142 207.132 476.894 207.373 476.562C207.613 476.229 207.743 475.829 207.743 475.419C207.743 475.008 207.613 474.609 207.373 474.276C207.132 473.943 206.793 473.695 206.403 473.567C205.406 473.059 204.302 472.795 203.183 472.795C202.063 472.795 200.96 473.059 199.962 473.567Z" fill="#ECEEF7"/>
<path d="M199.326 474.882V466.4H206.886V474.882C206.848 475.208 206.726 475.518 206.533 475.783C206.34 476.048 206.081 476.259 205.782 476.394C204.952 476.812 204.036 477.029 203.106 477.029C202.177 477.029 201.26 476.812 200.43 476.394C200.132 476.257 199.875 476.047 199.681 475.782C199.488 475.517 199.366 475.208 199.326 474.882Z" fill="#CACDDE"/>
<path d="M200.446 464.857C200.145 464.98 199.888 465.189 199.707 465.458C199.526 465.728 199.43 466.045 199.43 466.369C199.43 466.694 199.526 467.011 199.707 467.28C199.888 467.549 200.145 467.759 200.446 467.881C201.276 468.299 202.193 468.516 203.122 468.516C204.052 468.516 204.968 468.299 205.798 467.881C206.093 467.753 206.344 467.542 206.521 467.273C206.697 467.005 206.791 466.69 206.791 466.369C206.791 466.048 206.697 465.734 206.521 465.465C206.344 465.196 206.093 464.985 205.798 464.857C204.968 464.44 204.052 464.222 203.122 464.222C202.193 464.222 201.276 464.44 200.446 464.857Z" fill="white"/>
<path d="M203.122 467.972C203.943 467.994 204.756 467.801 205.48 467.413C205.69 467.327 205.873 467.189 206.014 467.011C206.154 466.834 206.246 466.623 206.282 466.4C206.282 466.052 205.994 465.689 205.48 465.402C204.756 465.014 203.943 464.821 203.122 464.842C202.295 464.823 201.478 465.016 200.748 465.402C200.249 465.689 199.946 466.052 199.946 466.4C199.984 466.622 200.077 466.832 200.217 467.009C200.358 467.186 200.54 467.325 200.748 467.413C201.478 467.799 202.295 467.992 203.122 467.972Z" fill="#A3A8C2"/>
<path d="M200.099 466.037V459.656H206.147V466.037C206.12 466.3 206.025 466.551 205.872 466.766C205.718 466.981 205.51 467.152 205.27 467.262C204.609 467.598 203.879 467.773 203.138 467.773C202.397 467.773 201.666 467.598 201.006 467.262C200.76 467.156 200.546 466.987 200.387 466.772C200.227 466.557 200.128 466.303 200.099 466.037Z" fill="#CACDDE"/>
<path d="M200.99 458.431C200.732 458.518 200.508 458.684 200.349 458.905C200.19 459.126 200.104 459.392 200.104 459.664C200.104 459.936 200.19 460.201 200.349 460.422C200.508 460.643 200.732 460.809 200.99 460.896C201.65 461.232 202.381 461.407 203.122 461.407C203.863 461.407 204.593 461.232 205.254 460.896C205.512 460.809 205.736 460.643 205.895 460.422C206.053 460.201 206.139 459.936 206.139 459.664C206.139 459.392 206.053 459.126 205.895 458.905C205.736 458.684 205.512 458.518 205.254 458.431C204.593 458.096 203.863 457.92 203.122 457.92C202.381 457.92 201.65 458.096 200.99 458.431Z" fill="white"/>
<path d="M203.123 460.911C203.774 460.922 204.418 460.772 204.998 460.473C205.406 460.231 205.648 459.944 205.648 459.656C205.648 459.369 205.406 459.097 204.998 458.855C204.421 458.549 203.775 458.398 203.123 458.416C202.466 458.398 201.815 458.549 201.233 458.855C200.824 459.097 200.598 459.384 200.598 459.656C200.598 459.929 200.824 460.231 201.233 460.473C201.817 460.772 202.466 460.922 203.123 460.911Z" fill="#A3A8C2"/>
<path d="M227.601 444.491C226.724 443.387 190.254 441.678 184.176 445.096C182.664 445.942 182.074 449.163 182.059 450.04C182.044 450.917 183.752 451.794 184.916 452.52C189.8 455.544 193.172 457.419 197.723 459.777C199.099 460.554 200.56 461.168 202.078 461.607C203.295 462.053 204.605 462.188 205.888 462C210.212 461.168 225.847 454.349 227.767 449.904C228.16 448.997 228.296 445.428 227.601 444.491Z" fill="#ECEEF7"/>
<path d="M227.526 443.221C227.073 442.646 217.623 449.42 207.87 450.781C206.676 450.947 203.455 451.174 201.61 451.28C199.267 451.401 186.626 446.305 183.874 445.232C183.722 445.165 183.554 445.141 183.389 445.163C183.224 445.184 183.068 445.25 182.937 445.352C182.705 445.508 182.506 445.707 182.351 445.94C182.197 446.172 182.09 446.433 182.036 446.707C181.983 446.981 181.984 447.263 182.04 447.537C182.096 447.81 182.206 448.07 182.362 448.301C183.012 449.164 183.836 449.88 184.782 450.403C189.046 452.943 193.37 455.347 197.649 457.827C199.018 458.606 200.482 459.205 202.004 459.611C202.412 459.717 202.79 459.807 203.153 459.868C204.024 460.074 204.926 460.12 205.814 460.004C211.469 459.036 225.47 452.519 227.693 447.908C228.18 446.373 228.122 444.717 227.526 443.221Z" fill="#4A04B7"/>
<path d="M226.785 441.95C225.845 440.816 224.689 439.881 223.383 439.198L211.892 432.561C210.471 431.744 209.564 432.062 207.976 432.273C203.458 432.579 199.052 433.814 195.033 435.902C190.538 437.984 186.658 441.192 183.769 445.216C183.769 445.307 184.343 446.38 186.279 447.605C190.467 450.251 193.718 452.141 197.997 454.545C199.367 455.322 200.83 455.921 202.351 456.329C203.58 456.724 204.878 456.858 206.162 456.723C211.302 456.088 226.045 448.225 227.632 444.747C228.071 443.825 227.466 442.842 226.785 441.95Z" fill="#6200EA"/>
<g style="mix-blend-mode:multiply">
<path d="M214.417 501.373C215.309 507.134 224.185 513.469 227.239 506.287C230.883 497.744 253.321 495.416 254.999 490.668C256.27 487.069 251.25 486.207 241.981 485.648C237.551 485.376 212.875 491.379 214.417 501.373Z" fill="#87E1FF"/>
</g>
<path d="M233.195 425.439C233.195 425.439 230.322 413.6 229.476 406.721C228.916 402.184 233.513 399.327 235.524 404.634C236.869 408.308 239.137 422.461 239.137 422.461L233.195 425.439Z" fill="#BEBCCE"/>
<path d="M223.278 502.235C223.762 503.399 223.732 502.9 224.503 504.85C224.941 505.954 225.168 507.723 222.779 507.875C221.313 507.902 219.893 507.36 218.818 506.363C217.839 505.373 217.176 504.115 216.912 502.749C216.912 502.386 215.93 501.403 215.612 500.617C215.382 500.269 215.238 499.872 215.192 499.457C215.146 499.043 215.199 498.624 215.346 498.234C215.494 497.844 215.732 497.495 216.041 497.215C216.35 496.936 216.721 496.733 217.124 496.625C219.906 495.612 221.479 498.833 221.872 499.543C222.411 500.402 222.882 501.302 223.278 502.235Z" fill="#616B8C"/>
<path d="M215.55 497.139C216.034 496.035 215.55 495.385 216.653 495.355C217.615 495.255 218.585 495.422 219.458 495.838C220.33 496.254 221.071 496.903 221.598 497.714C222.153 498.613 222.566 499.592 222.823 500.617C223.041 501.444 223.372 502.238 223.805 502.976C224.087 503.387 224.311 503.834 224.471 504.306C224.743 505.198 225.166 506.514 223.503 506.982C222.739 507.096 221.959 507.049 221.214 506.843C220.469 506.637 219.776 506.278 219.179 505.788C218.018 504.825 217.166 503.542 216.729 502.099C216.192 501.08 215.757 500.012 215.429 498.908C215.291 498.32 215.334 497.704 215.55 497.139Z" fill="#2F384F"/>
<path d="M244.838 491.56C246.156 492.101 247.557 492.413 248.981 492.482C249.903 492.482 252.973 492.633 253.849 491.484C253.963 491.043 253.963 490.58 253.849 490.138C253.608 489.337 252.111 489.261 251.506 489.065C248.951 488.173 249.102 488.732 246.516 488.294C246.032 488.218 243.492 487.719 242.343 487.689C241.136 487.791 239.952 488.082 238.835 488.551C238.382 490.335 240.03 490.637 241.012 490.849C242.306 490.972 243.586 491.21 244.838 491.56Z" fill="#616B8C"/>
<path d="M238.715 485.557C238.713 485.377 238.771 485.201 238.881 485.058C239.441 484.544 240.847 485.935 242.692 486.57C244.098 486.993 244.461 485.058 245.565 485.784C246.681 486.665 247.939 487.35 249.284 487.81C249.45 487.81 251.34 488.309 251.401 488.324C252.822 488.732 254.425 489.7 253.745 490.743C252.943 492.104 249.798 491.817 248.876 491.741C247.458 491.644 246.062 491.338 244.733 490.834C243.485 490.464 242.204 490.221 240.908 490.108C240.167 489.957 238.897 489.715 238.791 488.974C238.631 488.537 238.539 488.078 238.519 487.613C238.527 486.924 238.593 486.236 238.715 485.557Z" fill="#2F384F"/>
<path d="M233.847 462.786C231.102 459.924 227.991 457.437 224.593 455.392C221.463 453.532 218.545 452.262 216.111 450.025C214.004 448.02 212.653 445.35 212.285 442.464C212.252 440.81 212.583 439.169 213.253 437.656C214.1 435.993 216.277 432.379 217.789 433.755C221.846 437.212 225.717 440.882 229.386 444.748C233.423 449.012 241.105 456.995 241.225 459.203L233.847 462.786Z" fill="#37415E"/>
<path d="M241.24 459.233C241.708 460.881 244.158 482.14 245.141 484.665C245.337 485.179 245.7 486.328 242.404 487.039C241.827 487.112 241.241 487.066 240.682 486.905C240.123 486.744 239.603 486.471 239.153 486.101C238.503 485.406 233.967 463.996 233.619 462.544L241.24 459.233Z" fill="#37415E"/>
<path d="M218.348 469.303C209.517 459.082 201.141 454.183 198.948 446.275C198.106 442.392 198.72 438.335 200.672 434.874C201.746 433.846 214.613 431.533 217.304 435.525C217.849 436.341 217.304 444.204 216.73 445.096C213.993 449.632 223.776 461.501 225.469 464.903L218.348 469.303Z" fill="#2F2E41"/>
<path d="M225.44 464.903C228.691 468.426 222.673 485.92 221.962 497.819C221.962 498.621 221.962 498.938 221.222 499.135C220.513 499.293 219.777 499.285 219.071 499.112C218.366 498.939 217.71 498.605 217.154 498.137C216.823 497.899 216.555 497.586 216.37 497.223C216.186 496.86 216.092 496.458 216.096 496.05C216.096 496.05 218.182 468.26 218.077 466.037L225.44 464.903Z" fill="#616B8C"/>
<path d="M231.503 414.81C233.362 410.667 234.95 406.343 234.118 403.682C233.984 403.085 233.718 402.527 233.338 402.048C232.959 401.569 232.476 401.181 231.926 400.915C231.276 400.552 223.67 398.601 220.525 399.191C215.357 400.147 210.53 402.441 206.524 405.844C205.511 406.887 203.908 409.578 202.109 415.49C200.068 422.249 198.843 436.87 199.085 437.611C199.705 439.123 202.926 440.061 202.926 440.061C212.587 443.765 219.391 441.195 221.402 438.881C223.306 435.583 224.959 432.146 226.347 428.6C226.967 427.269 230.55 416.912 231.503 414.81Z" fill="#D0CDE1"/>
<path d="M207.931 428.343C206.487 422.179 205.422 415.933 204.741 409.639C204.363 404.044 210.789 404.362 211.635 408.611C212.346 412.088 214.176 425.787 214.312 426.286L207.931 428.343Z" fill="#BEBCCE"/>
<path d="M216.851 400.189C216.813 400.586 216.921 400.983 217.154 401.307C217.772 402.011 218.543 402.565 219.408 402.927C220.272 403.288 221.208 403.448 222.143 403.394C222.537 403.419 222.93 403.332 223.275 403.142C223.621 402.951 223.905 402.667 224.094 402.321L224.683 399.977L218.242 391.374C218.242 391.374 217.411 397.694 217.184 398.722C217.063 399.297 216.972 399.735 216.851 400.189Z" fill="#EDC1A6"/>
<path d="M232.32 387.125C232.519 388.39 232.373 389.686 231.896 390.874C231.896 391.147 231.337 394.261 231.065 394.942C229.689 398.556 227.723 400.627 226.876 400.748C226.223 400.876 225.55 400.868 224.9 400.725C224.25 400.582 223.636 400.307 223.096 399.916C221.904 398.938 220.778 397.882 219.725 396.756C219.241 396.242 219.256 393.944 219.195 393.279C219.135 392.613 218.908 393.672 218.379 393.551C218.249 393.526 218.128 393.467 218.03 393.379C217.931 393.291 217.858 393.178 217.819 393.052C215.34 387.2 217.245 380.26 221.478 379.58C225.712 378.899 231.412 383.662 232.32 387.125Z" fill="#FBD5BF"/>
<path d="M233.226 385.053C234.058 385.461 234.391 386.671 232.047 386.701C231.639 386.701 231.503 387.624 230.535 387.714C229.567 387.805 228.917 387.079 228.116 387.11C227.314 387.14 227.587 387.699 226.392 387.321C225.56 387.064 224.774 386.127 224.426 385.991C224.293 385.954 224.152 385.954 224.018 385.991C223.903 386.03 223.799 386.098 223.716 386.187C223.277 386.641 223.126 387.699 223.035 387.699C222.506 388.213 221.523 388.123 221.418 388.954C221.418 389.09 221.07 393.49 218.983 390.723C218.681 390.33 219.845 390.088 219.664 389.211C219.482 388.334 219.27 387.941 218.787 387.699C217.879 387.321 217.456 388.803 217.517 390.33C217.577 391.857 217.879 392.825 217.607 393.097C216.534 394.186 214.765 392.099 215.914 391.056C216.141 390.859 215.687 390.723 215.914 389.861C216.05 389.317 216.337 389.166 216.337 388.803C216.337 388.44 215.974 388.183 216.02 387.669C216.065 387.155 216.337 386.898 216.337 386.535C216.337 386.172 215.989 385.749 216.065 385.129C216.141 384.509 216.534 384.267 216.64 383.844C216.745 383.42 216.64 383.012 216.881 382.332C217.123 381.651 217.532 381.681 217.834 381.258C218.136 380.835 218.091 380.366 218.469 379.943C218.847 379.519 219.452 379.474 219.981 379.262C220.51 379.051 220.253 378.642 220.934 378.476C221.614 378.31 221.977 378.657 222.34 378.642C222.703 378.627 222.778 378.34 223.429 378.415C223.91 378.521 224.377 378.684 224.82 378.899C225.198 379.005 225.621 378.899 226.196 379.051C226.77 379.202 226.861 379.655 227.314 379.897C227.768 380.139 228.343 380.018 229.008 380.487C229.673 380.956 229.643 381.545 230.066 381.878C230.554 382.174 231.059 382.442 231.578 382.679C232.682 383.481 231.321 384.116 233.226 385.053Z" fill="#715154"/>
<path d="M201.746 449.964C202.214 449.692 202.093 448.815 202.093 448.815L182.936 439.38C182.83 439.879 182.8 441.104 183.435 441.527C186.232 443.326 184.947 446.789 184.766 448.694C184.418 453.396 187.17 453.336 187.669 453.593L187.774 450.78C187.971 448.966 187.774 446.244 189.604 446.123C190.414 446.047 191.229 446.21 191.948 446.592L199.16 450.372C199.444 450.507 199.753 450.577 200.067 450.577C200.381 450.577 200.691 450.507 200.974 450.372L201.746 449.964Z" fill="#ECEEF7"/>
<path d="M201.746 449.253C201.851 449.213 201.942 449.141 202.006 449.048C202.069 448.955 202.104 448.845 202.104 448.732C202.104 448.619 202.069 448.509 202.006 448.416C201.942 448.322 201.851 448.251 201.746 448.21L189.151 438.82C188.513 438.39 187.794 438.092 187.038 437.944C186.283 437.796 185.505 437.801 184.751 437.959C184.201 438.149 183.689 438.435 183.239 438.805C182.423 439.455 183.103 440.423 184.751 441.285L199.13 449.662C199.414 449.796 199.724 449.866 200.038 449.866C200.351 449.866 200.661 449.796 200.945 449.662L201.746 449.253Z" fill="white"/>
<g style="mix-blend-mode:multiply" opacity="0.4">
<path d="M187.774 522.178L294.266 460.73C295.545 460.074 296.963 459.732 298.401 459.732C299.839 459.732 301.256 460.074 302.536 460.73L351.299 489.065C353.567 490.38 353.567 492.528 351.299 493.858L244.792 555.352C242.494 556.667 239.152 556.985 237.459 555.79L224.561 560.039L220.494 558.255L231.411 552.328L190.163 528.438L172.019 530.706L169.63 526.971C169.63 526.971 185.491 523.494 187.774 522.178Z" fill="#D0CDE1"/>
</g>
<path d="M321.3 446.138C321.869 446.429 322.498 446.581 323.137 446.581C323.776 446.581 324.405 446.429 324.974 446.138C325.183 446.041 325.363 445.891 325.496 445.703C325.628 445.514 325.709 445.294 325.73 445.065L325.896 501.236C325.875 501.466 325.791 501.685 325.656 501.871C325.52 502.057 325.337 502.204 325.125 502.295C324.557 502.585 323.927 502.737 323.288 502.737C322.65 502.737 322.02 502.585 321.451 502.295C321.244 502.203 321.066 502.058 320.933 501.875C320.8 501.692 320.718 501.477 320.695 501.252L320.544 445.08C320.563 445.308 320.643 445.527 320.776 445.713C320.909 445.9 321.09 446.047 321.3 446.138Z" fill="#4A04B7"/>
<path d="M321.3 444.007C321.869 443.716 322.498 443.564 323.137 443.564C323.776 443.564 324.405 443.716 324.974 444.007C325.193 444.086 325.382 444.231 325.516 444.422C325.649 444.612 325.721 444.84 325.721 445.073C325.721 445.306 325.649 445.533 325.516 445.723C325.382 445.914 325.193 446.059 324.974 446.139C324.405 446.429 323.776 446.581 323.137 446.581C322.498 446.581 321.869 446.429 321.3 446.139C321.081 446.059 320.892 445.914 320.758 445.723C320.624 445.533 320.553 445.306 320.553 445.073C320.553 444.84 320.624 444.612 320.758 444.422C320.892 444.231 321.081 444.086 321.3 444.007Z" fill="#F7F9FC"/>
<g style="mix-blend-mode:multiply">
<path d="M320.529 445.156C320.532 444.912 320.604 444.674 320.738 444.47C320.872 444.266 321.062 444.105 321.285 444.007C321.854 443.716 322.484 443.564 323.122 443.564C323.761 443.564 324.391 443.716 324.959 444.007C325.169 444.099 325.35 444.245 325.483 444.432C325.616 444.618 325.697 444.837 325.716 445.065V454.923C325.693 455.155 325.61 455.376 325.475 455.564C325.339 455.753 325.156 455.902 324.944 455.997C324.376 456.288 323.746 456.439 323.107 456.439C322.469 456.439 321.839 456.288 321.27 455.997C321.065 455.9 320.889 455.752 320.759 455.566C320.629 455.381 320.55 455.164 320.529 454.939V445.08V445.156Z" fill="#E6EDF7"/>
</g>
<path d="M221.25 503.686C221.82 503.973 222.449 504.123 223.087 504.123C223.725 504.123 224.355 503.973 224.924 503.686C225.132 503.586 225.31 503.435 225.442 503.248C225.575 503.06 225.657 502.841 225.68 502.612L225.847 558.769C225.827 559.001 225.746 559.223 225.61 559.412C225.474 559.601 225.289 559.75 225.076 559.842C224.507 560.133 223.877 560.284 223.238 560.284C222.6 560.284 221.97 560.133 221.401 559.842C221.193 559.749 221.012 559.602 220.88 559.416C220.747 559.23 220.666 559.012 220.645 558.784L220.494 502.627C220.515 502.855 220.595 503.073 220.728 503.259C220.861 503.445 221.041 503.593 221.25 503.686Z" fill="#4A04B7"/>
<path d="M221.25 501.554C221.819 501.263 222.448 501.112 223.087 501.112C223.726 501.112 224.355 501.263 224.924 501.554C225.143 501.633 225.332 501.778 225.466 501.969C225.6 502.16 225.671 502.387 225.671 502.62C225.671 502.853 225.6 503.08 225.466 503.271C225.332 503.462 225.143 503.607 224.924 503.686C224.354 503.973 223.725 504.123 223.087 504.123C222.449 504.123 221.82 503.973 221.25 503.686C221.031 503.607 220.842 503.462 220.708 503.271C220.575 503.08 220.503 502.853 220.503 502.62C220.503 502.387 220.575 502.16 220.708 501.969C220.842 501.778 221.031 501.633 221.25 501.554Z" fill="#F7F9FC"/>
<g style="mix-blend-mode:multiply">
<path d="M220.494 502.704C220.494 502.459 220.566 502.22 220.7 502.016C220.834 501.812 221.025 501.652 221.25 501.555C221.818 501.264 222.448 501.112 223.087 501.112C223.725 501.112 224.355 501.264 224.924 501.555C225.134 501.646 225.315 501.793 225.448 501.98C225.581 502.166 225.661 502.385 225.68 502.613V512.471C225.656 512.702 225.572 512.922 225.437 513.111C225.302 513.299 225.12 513.449 224.909 513.545C224.339 513.832 223.71 513.982 223.072 513.982C222.434 513.982 221.804 513.832 221.235 513.545C221.029 513.447 220.852 513.298 220.72 513.113C220.588 512.928 220.505 512.712 220.479 512.486V502.704H220.494Z" fill="#E6EDF7"/>
</g>
<path d="M169.176 478.48C169.746 478.767 170.375 478.917 171.013 478.917C171.651 478.917 172.28 478.767 172.85 478.48C173.061 478.384 173.243 478.234 173.378 478.046C173.514 477.858 173.597 477.637 173.621 477.407L173.712 529.193C173.69 529.423 173.607 529.642 173.471 529.828C173.336 530.014 173.152 530.161 172.941 530.252C172.372 530.542 171.742 530.694 171.104 530.694C170.465 530.694 169.835 530.542 169.267 530.252C169.061 530.16 168.884 530.015 168.753 529.832C168.623 529.648 168.544 529.433 168.526 529.208L168.42 477.422C168.443 477.649 168.525 477.865 168.658 478.051C168.79 478.237 168.969 478.385 169.176 478.48Z" fill="#4A04B7"/>
<path d="M169.19 476.348C169.759 476.058 170.389 475.906 171.028 475.906C171.666 475.906 172.296 476.058 172.865 476.348C173.091 476.421 173.288 476.563 173.428 476.754C173.568 476.946 173.644 477.177 173.644 477.414C173.644 477.652 173.568 477.883 173.428 478.075C173.288 478.266 173.091 478.408 172.865 478.48C172.295 478.768 171.666 478.917 171.028 478.917C170.389 478.917 169.76 478.768 169.19 478.48C168.972 478.401 168.782 478.256 168.649 478.065C168.515 477.875 168.443 477.647 168.443 477.414C168.443 477.182 168.515 476.954 168.649 476.764C168.782 476.573 168.972 476.428 169.19 476.348Z" fill="#F7F9FC"/>
<g style="mix-blend-mode:multiply">
<path d="M168.436 477.498C168.435 477.253 168.506 477.013 168.64 476.809C168.775 476.604 168.967 476.444 169.192 476.348C169.761 476.058 170.39 475.906 171.029 475.906C171.668 475.906 172.297 476.058 172.866 476.348C173.074 476.443 173.253 476.591 173.386 476.776C173.519 476.962 173.6 477.18 173.622 477.407V493.54C173.6 493.771 173.517 493.992 173.381 494.181C173.246 494.369 173.063 494.519 172.851 494.614C172.282 494.904 171.653 495.056 171.014 495.056C170.375 495.056 169.746 494.904 169.177 494.614C168.971 494.517 168.793 494.368 168.661 494.183C168.528 493.998 168.446 493.782 168.421 493.555V477.422C168.427 477.447 168.432 477.472 168.436 477.498Z" fill="#E6EDF7"/>
</g>
<path d="M160.982 481.943L209.744 510.279C211.024 510.934 212.441 511.276 213.879 511.276C215.318 511.276 216.735 510.934 218.015 510.279L330.146 445.534C330.625 445.327 331.04 444.994 331.346 444.571C331.652 444.148 331.838 443.65 331.885 443.13V446.865C331.836 447.382 331.651 447.877 331.348 448.3C331.045 448.722 330.636 449.057 330.161 449.269L218.015 514.013C216.737 514.666 215.322 515.007 213.887 515.007C212.452 515.007 211.037 514.666 209.759 514.013L160.982 485.678C160.515 485.463 160.113 485.129 159.815 484.71C159.518 484.291 159.336 483.801 159.288 483.289V479.57C159.334 480.08 159.516 480.569 159.813 480.986C160.111 481.403 160.514 481.734 160.982 481.943Z" fill="#D3D3D3"/>
<path d="M160.996 477.15L273.143 412.406C274.425 411.757 275.841 411.419 277.278 411.419C278.715 411.419 280.131 411.757 281.413 412.406L330.176 440.756C332.459 442.072 332.444 444.219 330.176 445.534L218.014 510.279C216.735 510.934 215.317 511.276 213.879 511.276C212.441 511.276 211.024 510.934 209.744 510.279L160.981 481.943C158.743 480.628 158.743 478.481 160.996 477.15Z" fill="#E5E5E5"/>
<g style="mix-blend-mode:multiply">
<path d="M284.377 456.874L253.668 474.716C251.851 475.648 249.765 475.915 247.771 475.472C247.066 475.323 246.388 475.068 245.76 474.716L227.087 463.92C224.894 462.65 224.894 460.608 227.087 459.384L254.197 443.628L257.796 441.542C259.973 440.272 264.902 441.103 267.095 442.358L284.377 452.338C286.539 453.562 286.554 455.558 284.377 456.874Z" fill="#BFCCD9"/>
</g>
<path d="M286.782 452.912L256.073 470.754C254.849 471.38 253.494 471.707 252.119 471.707C250.744 471.707 249.389 471.38 248.165 470.754L230.898 460.775C230.442 460.573 230.047 460.254 229.755 459.85C229.463 459.447 229.283 458.972 229.234 458.476V461.425C229.279 461.92 229.455 462.395 229.745 462.799C230.034 463.203 230.427 463.522 230.882 463.723L248.165 473.702C249.388 474.321 250.74 474.644 252.111 474.644C253.482 474.644 254.834 474.321 256.058 473.702L286.782 455.845C287.229 455.645 287.615 455.33 287.899 454.931C288.183 454.533 288.356 454.065 288.4 453.577V450.629C288.353 451.118 288.179 451.585 287.895 451.986C287.611 452.387 287.227 452.706 286.782 452.912Z" fill="url(#paint0_linear)"/>
<path d="M286.781 452.912L256.072 470.754C254.255 471.689 252.167 471.951 250.175 471.495C249.469 471.358 248.79 471.108 248.164 470.754L230.897 460.775C228.705 459.52 228.69 457.463 230.897 456.239L257.992 440.438L261.561 438.352C262.787 437.732 264.141 437.41 265.515 437.41C266.888 437.41 268.243 437.732 269.469 438.352L286.751 448.331C288.943 449.601 288.959 451.642 286.781 452.912Z" fill="#737B99"/>
<g style="mix-blend-mode:multiply">
<g style="mix-blend-mode:multiply">
<path d="M242.659 463.254C242.515 463.256 242.373 463.22 242.248 463.148C242.123 463.076 242.019 462.972 241.949 462.846C241.892 462.751 241.855 462.646 241.839 462.536C241.824 462.426 241.83 462.315 241.858 462.208C241.887 462.101 241.936 462 242.003 461.913C242.071 461.825 242.155 461.752 242.251 461.697L268.848 446.274C269.039 446.168 269.264 446.141 269.475 446.197C269.687 446.253 269.868 446.389 269.982 446.577C270.038 446.672 270.076 446.777 270.091 446.887C270.107 446.996 270.1 447.108 270.072 447.215C270.044 447.322 269.994 447.422 269.927 447.51C269.86 447.598 269.775 447.671 269.679 447.726L243.083 463.118C242.957 463.202 242.811 463.25 242.659 463.254Z" fill="#7E87A8"/>
</g>
<g style="mix-blend-mode:multiply">
<path d="M246.137 465.266C245.989 465.264 245.845 465.225 245.718 465.15C245.59 465.076 245.485 464.97 245.411 464.842C245.301 464.652 245.271 464.425 245.328 464.213C245.385 464 245.523 463.819 245.713 463.708L275.954 446.275C276.077 446.201 276.219 446.165 276.362 446.169C276.508 446.167 276.652 446.204 276.78 446.276C276.907 446.347 277.013 446.451 277.088 446.577C277.198 446.77 277.228 446.999 277.172 447.214C277.115 447.429 276.976 447.613 276.785 447.726L246.545 465.145C246.422 465.221 246.281 465.263 246.137 465.266Z" fill="#7E87A8"/>
</g>
<g style="mix-blend-mode:multiply">
<path d="M249.6 467.261C249.453 467.263 249.309 467.226 249.182 467.155C249.055 467.083 248.948 466.979 248.874 466.853C248.763 466.66 248.733 466.432 248.79 466.217C248.846 466.002 248.985 465.817 249.176 465.704L279.417 448.27C279.543 448.206 279.683 448.169 279.825 448.165C279.972 448.166 280.117 448.206 280.244 448.28C280.371 448.354 280.477 448.46 280.551 448.588C280.66 448.779 280.69 449.005 280.634 449.217C280.577 449.43 280.438 449.611 280.248 449.722L250.008 467.155C249.885 467.229 249.743 467.266 249.6 467.261Z" fill="#7E87A8"/>
</g>
<g style="mix-blend-mode:multiply">
<path d="M274.91 456.647C274.764 456.649 274.62 456.612 274.492 456.54C274.365 456.469 274.259 456.365 274.184 456.239C274.074 456.046 274.044 455.817 274.1 455.602C274.157 455.387 274.296 455.203 274.487 455.09L282.833 450.282C282.932 450.227 283.041 450.192 283.154 450.18C283.267 450.168 283.381 450.177 283.489 450.209C283.598 450.241 283.7 450.293 283.788 450.364C283.877 450.435 283.95 450.523 284.005 450.622C284.06 450.721 284.094 450.83 284.107 450.943C284.119 451.055 284.109 451.169 284.078 451.278C284.046 451.387 283.993 451.489 283.922 451.577C283.852 451.665 283.764 451.739 283.665 451.794L275.318 456.617C275.187 456.663 275.047 456.673 274.91 456.647Z" fill="#7E87A8"/>
</g>
<g style="mix-blend-mode:multiply">
<path d="M259.625 465.477C259.478 465.476 259.333 465.436 259.206 465.362C259.079 465.288 258.973 465.181 258.899 465.054C258.789 464.863 258.759 464.637 258.816 464.424C258.873 464.212 259.011 464.03 259.202 463.92L271.676 456.723C271.804 456.646 271.95 456.605 272.099 456.602C272.246 456.603 272.391 456.643 272.518 456.717C272.645 456.791 272.751 456.897 272.825 457.025C272.935 457.216 272.964 457.442 272.908 457.654C272.851 457.867 272.713 458.048 272.522 458.159L260.048 465.356C259.92 465.432 259.774 465.474 259.625 465.477Z" fill="#7E87A8"/>
</g>
<g style="mix-blend-mode:multiply">
<path d="M253.062 469.257C252.916 469.259 252.772 469.222 252.644 469.151C252.517 469.079 252.411 468.975 252.336 468.849C252.23 468.655 252.202 468.428 252.258 468.214C252.314 468 252.451 467.816 252.639 467.7L256.51 465.477C256.701 465.371 256.926 465.344 257.137 465.4C257.349 465.457 257.53 465.593 257.644 465.78C257.7 465.875 257.738 465.98 257.753 466.09C257.769 466.199 257.762 466.311 257.734 466.418C257.706 466.525 257.656 466.625 257.589 466.713C257.522 466.801 257.437 466.874 257.341 466.929L253.485 469.167C253.355 469.234 253.209 469.265 253.062 469.257Z" fill="#7E87A8"/>
</g>
<g style="mix-blend-mode:multiply">
<path d="M258.172 449.631L250.022 454.349C249.507 454.602 248.941 454.734 248.366 454.734C247.792 454.734 247.226 454.602 246.711 454.349L243.158 452.292C242.962 452.221 242.793 452.092 242.673 451.922C242.553 451.751 242.489 451.548 242.489 451.34C242.489 451.132 242.553 450.928 242.673 450.758C242.793 450.588 242.962 450.458 243.158 450.387L251.307 445.685C251.817 445.423 252.382 445.287 252.955 445.287C253.529 445.287 254.093 445.423 254.603 445.685L258.172 447.726C258.368 447.797 258.537 447.926 258.656 448.097C258.776 448.267 258.84 448.47 258.84 448.679C258.84 448.887 258.776 449.09 258.656 449.26C258.537 449.431 258.368 449.56 258.172 449.631Z" fill="#7E87A8"/>
</g>
</g>
<g style="mix-blend-mode:multiply">
<path d="M235.009 465.205L233.255 464.207C233.12 464.122 233.006 464.007 232.922 463.871C232.838 463.734 232.786 463.581 232.771 463.421C232.771 463.149 232.983 463.058 233.255 463.21L235.009 464.223C235.147 464.303 235.264 464.414 235.351 464.548C235.438 464.682 235.492 464.835 235.508 464.994C235.508 465.266 235.281 465.372 235.009 465.205Z" fill="#BFCCD9"/>
</g>
<g style="mix-blend-mode:multiply">
<path d="M238.699 467.352L236.96 466.354C236.822 466.27 236.706 466.155 236.619 466.019C236.533 465.883 236.479 465.729 236.461 465.568C236.461 465.296 236.688 465.205 236.96 465.357L238.699 466.37C238.839 466.451 238.957 466.565 239.044 466.702C239.131 466.839 239.183 466.994 239.198 467.156C239.198 467.428 238.971 467.519 238.699 467.352Z" fill="#BFCCD9"/>
</g>
<g style="mix-blend-mode:multiply">
<path d="M272.583 446.109C273.368 446.109 274.005 445.743 274.005 445.292C274.005 444.841 273.368 444.476 272.583 444.476C271.798 444.476 271.162 444.841 271.162 445.292C271.162 445.743 271.798 446.109 272.583 446.109Z" fill="#7E87A8"/>
</g>
<path d="M255.421 443.629C255.164 442.553 254.496 441.62 253.562 441.028C252.957 440.635 249.857 441.784 251.384 442.45C251.733 442.559 252.034 442.786 252.235 443.092C252.436 443.398 252.526 443.764 252.488 444.128C252.488 444.324 252.488 444.657 252.685 444.748C252.754 444.777 252.828 444.793 252.904 444.793C252.979 444.793 253.054 444.777 253.123 444.748C253.133 444.811 253.156 444.872 253.189 444.926C253.223 444.981 253.267 445.028 253.32 445.065C253.39 445.099 253.468 445.116 253.546 445.116C253.625 445.116 253.702 445.099 253.773 445.065C253.773 445.065 253.864 445.519 253.985 445.61C254.069 445.66 254.166 445.687 254.265 445.687C254.363 445.687 254.46 445.66 254.544 445.61C254.786 445.443 255.693 444.324 255.421 443.629Z" fill="#D18A60"/>
<path d="M255.845 443.175C255.271 441.769 255.437 441.073 255.059 440.438C254.29 439.803 253.4 439.329 252.443 439.047C251.752 438.694 251.123 438.229 250.583 437.671C250.296 437.369 247.363 439.183 247.862 439.818L249.283 441.512C249.57 441.86 249.646 443.447 250.145 444.082C250.326 444.294 251.309 445.473 251.657 446.018C252.005 446.562 252.352 445.443 252.201 445.126C252.05 444.808 251.823 444.475 251.596 444.007C251.404 443.629 251.325 443.204 251.37 442.782C251.37 442.313 252.277 441.754 252.594 441.724C252.843 441.719 253.089 441.776 253.311 441.889C253.532 442.003 253.723 442.169 253.864 442.374C254.152 442.812 254.318 443.19 254.545 443.583C255.07 444.558 255.525 445.568 255.906 446.607C256.011 447.001 256.571 447.318 256.752 447.061C256.934 446.804 256.601 445.836 256.48 445.322C256.325 444.591 256.112 443.873 255.845 443.175Z" fill="#EDC1A6"/>
<path d="M239.047 422.188C239.816 423.846 240.836 425.376 242.071 426.724C244.052 429.189 250.04 436.068 251.476 437.868C251.502 437.89 251.523 437.918 251.537 437.95C251.551 437.981 251.558 438.015 251.558 438.049C251.558 438.083 251.551 438.117 251.537 438.149C251.523 438.18 251.502 438.208 251.476 438.23C250.833 438.675 250.236 439.181 249.692 439.743C249.342 440.096 249.018 440.475 248.724 440.877C248.692 440.915 248.651 440.946 248.605 440.967C248.56 440.988 248.51 440.999 248.46 440.999C248.409 440.999 248.36 440.988 248.314 440.967C248.268 440.946 248.228 440.915 248.195 440.877C246.426 439.365 241.467 434.995 239.682 433.211C237.097 430.625 234.194 428.281 233.302 425.484L239.047 422.188Z" fill="#BEBCCE"/>
<path d="M288.868 425.092C288.418 424.88 287.919 424.794 287.424 424.842C286.929 424.889 286.456 425.07 286.055 425.364L284.755 426.105L255.135 443.205C253.981 443.953 253.022 444.964 252.336 446.155C251.65 447.346 251.257 448.682 251.188 450.055L251.491 469.847C251.491 471.102 251.687 472.04 252.398 472.448L249.283 470.679C248.877 470.4 248.555 470.017 248.35 469.57C248.145 469.122 248.065 468.628 248.119 468.139V448.286C248.157 447.047 248.489 445.834 249.086 444.748C249.762 443.381 250.811 442.233 252.111 441.436L283.016 423.595C283.42 423.301 283.896 423.121 284.393 423.073C284.89 423.025 285.391 423.111 285.844 423.322L288.868 425.092Z" fill="url(#paint1_linear)"/>
<g style="mix-blend-mode:multiply">
<path d="M253.44 471.617C254.364 471.5 255.258 471.208 256.071 470.755L286.78 452.913C287.231 452.711 287.619 452.394 287.906 451.992C288.193 451.591 288.368 451.121 288.413 450.63V452.822C288.414 453.064 288.359 453.302 288.254 453.519C288.15 453.736 287.997 453.927 287.809 454.077L256.888 471.919C255.421 472.766 254.136 472.584 253.44 471.617Z" fill="#BFCCD9"/>
</g>
<path d="M286.055 425.319C288.232 424.049 290.017 425.062 290.032 427.587V447.44C289.961 448.812 289.566 450.147 288.88 451.338C288.195 452.528 287.237 453.54 286.085 454.289L255.225 472.191C253.033 473.461 251.249 472.433 251.233 469.923V450.071C251.302 448.698 251.695 447.361 252.381 446.17C253.068 444.98 254.027 443.969 255.18 443.221L286.055 425.319Z" fill="#3D4663"/>
<g style="mix-blend-mode:multiply">
<path d="M277.15 446.094C277.001 447.546 276.512 448.942 275.724 450.171C274.936 451.4 273.871 452.427 272.614 453.17C270.134 454.591 268.078 453.744 268.078 451.265C268.227 449.812 268.715 448.415 269.503 447.186C270.29 445.956 271.356 444.93 272.614 444.188C275.169 442.752 277.15 443.614 277.15 446.094Z" fill="#B8C0D6"/>
</g>
<path d="M214.28 426.165C214.779 428.267 219.905 433.907 223.609 437.324C226.437 439.94 227.525 440.68 228.78 441.951C229.007 442.192 228.538 443.795 227.873 444.823C227.558 445.131 227.184 445.371 226.773 445.53C226.363 445.688 225.924 445.762 225.484 445.746C223.257 444.281 221.125 442.675 219.103 440.937C214.31 437.021 207.945 431.563 207.748 427.465L214.28 426.165Z" fill="#BEBCCE"/>
<path d="M234.087 446.486C233.517 446.087 233.038 445.572 232.681 444.974C232.801 444.974 233.83 445.488 233.951 445.519C235.024 445.821 235.221 445.655 235.705 445.398C236.188 445.141 235.432 444.944 234.54 444.309C234.021 443.926 233.457 443.606 232.862 443.356C232.475 443.274 232.079 443.238 231.683 443.251C230.503 443.099 229.823 443.387 228.961 442.782C228.734 442.631 228.447 442.389 228.447 442.389C228.447 442.389 225.423 445.246 225.876 445.534C226.693 446.033 226.784 446.864 227.147 447.303C228.019 448.228 228.998 449.045 230.065 449.737C231.018 450.142 232.057 450.303 233.089 450.206C233.588 450.206 233.935 449.435 234.707 449.163C235.478 448.89 237.035 449.707 237.201 449.631C238.23 449.057 235.629 447.651 234.087 446.486Z" fill="#FBD5BF"/>
<g style="mix-blend-mode:multiply">
<path d="M206.554 474.851L217.395 481.353C218.269 481.602 219.179 481.704 220.086 481.655L225.515 478.631C225.756 478.495 225.756 478.268 225.515 478.117L213.176 471.011C213.04 470.944 212.89 470.909 212.738 470.909C212.586 470.909 212.436 470.944 212.299 471.011L206.584 474.337C206.312 474.488 206.312 474.715 206.554 474.851Z" fill="#BFCCD9"/>
</g>
<path d="M208.005 474.685C208.01 474.74 208.03 474.792 208.062 474.837C208.093 474.882 208.136 474.918 208.186 474.942L219.799 481.64C219.933 481.714 220.084 481.753 220.237 481.753C220.39 481.753 220.541 481.714 220.676 481.64L226.391 478.314C226.441 478.294 226.484 478.261 226.516 478.218C226.548 478.176 226.568 478.125 226.572 478.072V476.817C226.567 476.87 226.55 476.921 226.521 476.965C226.492 477.01 226.452 477.047 226.406 477.074L220.736 480.385C220.602 480.459 220.451 480.498 220.298 480.498C220.144 480.498 219.993 480.459 219.859 480.385L208.186 473.702C208.136 473.678 208.093 473.642 208.062 473.597C208.03 473.552 208.01 473.5 208.005 473.445V474.685Z" fill="url(#paint2_linear)"/>
<path d="M208.187 473.702L219.8 480.401C219.934 480.475 220.085 480.514 220.238 480.514C220.392 480.514 220.542 480.475 220.677 480.401L226.407 477.089C226.461 477.071 226.507 477.036 226.54 476.99C226.572 476.944 226.59 476.889 226.59 476.832C226.59 476.776 226.572 476.721 226.54 476.674C226.507 476.628 226.461 476.594 226.407 476.575L214.795 469.862C214.658 469.795 214.508 469.76 214.356 469.76C214.204 469.76 214.054 469.795 213.918 469.862L208.203 473.188C207.945 473.324 207.945 473.551 208.187 473.702Z" fill="#7E87A8"/>
<path d="M220.238 480.386C220.106 480.388 219.976 480.357 219.86 480.295L208.247 473.597C208.157 473.597 208.111 473.491 208.111 473.43C208.111 473.37 208.111 473.324 208.232 473.279L213.963 469.953C214.08 469.893 214.209 469.862 214.341 469.862C214.472 469.862 214.602 469.893 214.719 469.953L226.346 476.727C226.379 476.742 226.407 476.765 226.428 476.794C226.449 476.823 226.463 476.857 226.467 476.893C226.461 476.926 226.446 476.957 226.425 476.983C226.404 477.009 226.377 477.03 226.346 477.044L220.631 480.37C220.503 480.408 220.368 480.413 220.238 480.386Z" fill="#A8C4E5"/>
<g style="mix-blend-mode:multiply">
<path d="M224.789 477.225L221.916 478.874C221.902 478.882 221.886 478.886 221.871 478.886C221.855 478.886 221.839 478.882 221.825 478.874C221.825 478.874 221.825 478.874 221.825 478.783L224.713 477.135H224.804C224.804 477.135 224.819 477.195 224.789 477.225Z" fill="#BFCCD9"/>
</g>
<g style="mix-blend-mode:multiply">
<path d="M221.508 479.009C221.508 479.009 221.508 479.085 221.508 479.115C221.48 479.13 221.448 479.138 221.417 479.138C221.385 479.138 221.354 479.13 221.326 479.115C221.326 479.115 221.326 479.04 221.326 479.009C221.354 478.995 221.385 478.987 221.417 478.987C221.448 478.987 221.48 478.995 221.508 479.009Z" fill="#BFCCD9"/>
</g>
<path d="M218.786 480.673L217.636 479.947C217.526 479.842 217.434 479.719 217.364 479.584H217.455C217.48 479.568 217.509 479.559 217.538 479.559C217.568 479.559 217.597 479.568 217.621 479.584L218.74 480.234C218.785 480.258 218.824 480.293 218.853 480.335C218.882 480.377 218.9 480.425 218.907 480.476C218.907 480.476 218.907 480.582 218.907 480.597L218.786 480.673Z" fill="#7E87A8"/>
<path d="M218.635 480.688L217.501 480.037C217.448 479.998 217.405 479.948 217.374 479.891C217.342 479.834 217.324 479.77 217.319 479.705C217.319 479.584 217.41 479.538 217.501 479.599L218.635 480.249C218.687 480.285 218.73 480.332 218.762 480.387C218.793 480.442 218.812 480.504 218.816 480.567C218.819 480.589 218.816 480.612 218.807 480.633C218.798 480.654 218.783 480.672 218.764 480.684C218.745 480.697 218.722 480.704 218.7 480.704C218.677 480.705 218.654 480.699 218.635 480.688Z" fill="#616B8C"/>
<path d="M216.881 479.539L215.369 478.586C215.264 478.477 215.172 478.355 215.097 478.223H215.187C215.212 478.207 215.241 478.198 215.271 478.198C215.3 478.198 215.329 478.207 215.354 478.223L216.866 479.115C216.911 479.141 216.95 479.176 216.982 479.217C217.013 479.259 217.035 479.307 217.047 479.357C217.061 479.396 217.061 479.439 217.047 479.478L216.881 479.539Z" fill="#7E87A8"/>
<path d="M216.715 479.554L215.203 478.677C215.15 478.638 215.107 478.588 215.076 478.531C215.044 478.473 215.026 478.41 215.021 478.344C215.021 478.223 215.112 478.178 215.203 478.239L216.715 479.116C216.771 479.152 216.818 479.201 216.852 479.259C216.886 479.317 216.906 479.381 216.912 479.448C216.912 479.569 216.821 479.615 216.715 479.554Z" fill="#616B8C"/>
<path style="mix-blend-mode:screen" opacity="0.05" d="M315.161 369.359L344.645 351.698V283.431L315.161 301.091V369.359Z" fill="url(#paint3_linear)"/>
<path d="M316.342 290.748L341.139 276.43C341.468 276.192 341.855 276.047 342.259 276.01C342.663 275.972 343.07 276.044 343.437 276.218L346.098 277.73C345.731 277.556 345.324 277.484 344.92 277.522C344.516 277.559 344.129 277.704 343.8 277.942L319.018 292.26C318.08 292.863 317.3 293.681 316.743 294.647C316.185 295.612 315.866 296.696 315.812 297.81V326.311C315.772 326.706 315.838 327.105 316.002 327.466C316.167 327.828 316.425 328.139 316.75 328.367L314.089 326.855C313.764 326.627 313.506 326.316 313.341 325.954C313.177 325.593 313.111 325.194 313.151 324.799V296.298C313.207 295.186 313.525 294.104 314.08 293.14C314.634 292.175 315.409 291.356 316.342 290.748Z" fill="url(#paint4_linear)"/>
<path d="M319.018 292.261L343.815 277.927C345.599 276.914 347.035 277.73 347.05 279.771L347.126 308.273C347.071 309.388 346.751 310.474 346.194 311.441C345.637 312.409 344.857 313.23 343.921 313.837L319.123 328.156C317.339 329.169 315.903 328.353 315.888 326.311V297.81C315.933 296.703 316.241 295.623 316.785 294.659C317.329 293.694 318.094 292.872 319.018 292.261Z" fill="#FD6F95"/>
<path d="M323.992 318.055C324.155 317.958 324.293 317.824 324.395 317.664C324.498 317.504 324.561 317.322 324.581 317.133C324.581 316.8 324.324 316.695 323.992 316.876C323.832 316.976 323.697 317.111 323.598 317.271C323.498 317.431 323.436 317.611 323.417 317.798C323.417 318.131 323.674 318.237 323.992 318.055Z" fill="#F7F9FC"/>
<path d="M331.234 313.883C331.394 313.783 331.528 313.648 331.628 313.488C331.727 313.328 331.789 313.148 331.809 312.96C331.809 312.628 331.552 312.522 331.234 312.703C331.071 312.801 330.933 312.935 330.831 313.095C330.728 313.255 330.665 313.437 330.645 313.626C330.645 313.958 330.902 314.064 331.234 313.883Z" fill="#F7F9FC"/>
<path d="M338.462 309.694C338.622 309.598 338.757 309.466 338.857 309.309C338.957 309.151 339.018 308.972 339.036 308.787C339.036 308.454 338.779 308.348 338.462 308.53C338.297 308.625 338.158 308.759 338.055 308.919C337.952 309.08 337.89 309.263 337.872 309.452C337.872 309.77 338.129 309.891 338.462 309.694Z" fill="#F7F9FC"/>
<path d="M335.83 307.003L341.092 303.964V291.641L335.83 294.68V307.003Z" fill="white"/>
<path d="M328.588 311.176L333.865 308.136V298.974L328.588 302.028V311.176Z" fill="white"/>
<path d="M321.361 315.349L326.638 312.31V295.647L321.361 298.702V315.349Z" fill="white"/>
<path d="M333.744 312.189H333.925L336.239 310.843C336.278 310.821 336.313 310.791 336.341 310.755C336.369 310.72 336.389 310.679 336.4 310.635C336.412 310.591 336.414 310.545 336.407 310.5C336.4 310.455 336.384 310.413 336.36 310.374C336.315 310.294 336.241 310.236 336.153 310.21C336.065 310.185 335.971 310.195 335.891 310.238L333.577 311.584C333.511 311.621 333.459 311.68 333.429 311.75C333.399 311.82 333.393 311.898 333.412 311.972C333.431 312.046 333.474 312.112 333.534 312.159C333.594 312.207 333.667 312.233 333.744 312.234V312.189Z" fill="#F7F9FC"/>
<path d="M340.821 308.107C340.881 308.12 340.943 308.12 341.002 308.107L343.316 306.761C343.356 306.739 343.39 306.709 343.418 306.673C343.446 306.638 343.466 306.596 343.477 306.553C343.489 306.509 343.491 306.463 343.484 306.418C343.477 306.373 343.461 306.33 343.437 306.292C343.392 306.212 343.318 306.154 343.23 306.128C343.143 306.103 343.048 306.113 342.968 306.156L340.655 307.502C340.588 307.539 340.536 307.598 340.506 307.668C340.476 307.738 340.47 307.816 340.489 307.89C340.508 307.964 340.551 308.03 340.611 308.077C340.671 308.125 340.745 308.151 340.821 308.152V308.107Z" fill="#F7F9FC"/>
<path d="M326.456 316.453C326.511 316.468 326.568 316.468 326.623 316.453L328.951 315.122C328.992 315.099 329.027 315.068 329.055 315.031C329.083 314.993 329.103 314.951 329.114 314.906C329.125 314.861 329.127 314.814 329.12 314.768C329.113 314.722 329.097 314.678 329.072 314.638C329.05 314.599 329.021 314.564 328.985 314.536C328.949 314.508 328.908 314.488 328.864 314.477C328.82 314.466 328.774 314.463 328.73 314.47C328.685 314.477 328.642 314.493 328.604 314.518L326.275 315.848C326.197 315.898 326.141 315.976 326.118 316.066C326.096 316.156 326.109 316.251 326.154 316.332C326.191 316.375 326.238 316.409 326.29 316.43C326.343 316.451 326.4 316.459 326.456 316.453Z" fill="#F7F9FC"/>
<path d="M319.229 320.566C319.289 320.579 319.351 320.579 319.41 320.566L321.724 319.235C321.764 319.212 321.799 319.181 321.827 319.143C321.855 319.106 321.875 319.064 321.887 319.019C321.898 318.974 321.9 318.927 321.893 318.881C321.886 318.835 321.869 318.791 321.845 318.751C321.823 318.712 321.793 318.677 321.757 318.649C321.722 318.621 321.68 318.601 321.637 318.59C321.593 318.578 321.547 318.576 321.502 318.583C321.457 318.59 321.414 318.606 321.376 318.63L319.063 319.961C318.982 320.008 318.923 320.085 318.897 320.175C318.872 320.266 318.882 320.362 318.927 320.445C318.963 320.488 319.01 320.522 319.063 320.543C319.116 320.564 319.173 320.572 319.229 320.566Z" fill="#F7F9FC"/>
<path style="mix-blend-mode:screen" opacity="0.05" d="M293.056 434.556L322.54 416.911V348.644L293.056 366.289V434.556Z" fill="url(#paint5_linear)"/>
<path d="M294.236 355.977L319.018 341.658C319.345 341.418 319.731 341.27 320.136 341.23C320.54 341.19 320.948 341.26 321.316 341.431L323.977 342.943C323.608 342.776 323.201 342.71 322.798 342.749C322.394 342.789 322.008 342.934 321.679 343.17L296.882 357.489C295.945 358.093 295.166 358.911 294.608 359.876C294.051 360.841 293.731 361.925 293.676 363.038V391.54C293.636 391.937 293.702 392.337 293.867 392.701C294.031 393.065 294.289 393.379 294.614 393.611L291.953 392.099C291.628 391.867 291.37 391.553 291.205 391.189C291.041 390.825 290.975 390.425 291.015 390.027L290.939 361.526C291.005 360.405 291.338 359.315 291.912 358.35C292.485 357.384 293.282 356.57 294.236 355.977Z" fill="#9E52A0"/>
<path d="M296.896 357.519L321.694 343.2C323.478 342.172 324.914 342.989 324.929 345.045L325.005 373.531C324.945 374.645 324.623 375.729 324.066 376.696C323.51 377.663 322.733 378.485 321.799 379.096L297.002 393.414C295.218 394.443 293.767 393.611 293.767 391.57V363.068C293.813 361.962 294.121 360.882 294.665 359.918C295.209 358.953 295.974 358.131 296.896 357.519Z" fill="#BD67BE"/>
<path d="M306.922 364.096L320.031 356.536C320.454 356.281 320.81 355.931 321.073 355.513C321.335 355.096 321.496 354.623 321.543 354.132C321.543 353.285 320.863 352.998 320.031 353.482L306.922 361.042C306.503 361.296 306.148 361.644 305.886 362.059C305.623 362.473 305.461 362.943 305.41 363.431C305.41 364.293 306.045 364.58 306.922 364.096Z" fill="#F7F9FC"/>
<path d="M299.179 375.558L319.985 363.552C320.404 363.295 320.759 362.944 321.021 362.527C321.284 362.11 321.446 361.638 321.497 361.148C321.497 360.301 320.816 360.014 319.985 360.498L299.179 372.594C298.758 372.847 298.402 373.194 298.14 373.609C297.877 374.024 297.715 374.494 297.667 374.983C297.652 375.754 298.333 376.041 299.179 375.558Z" fill="#F7F9FC"/>
<path d="M299.179 382.574L319.985 370.477C320.405 370.224 320.76 369.876 321.023 369.461C321.285 369.047 321.447 368.577 321.497 368.088C321.497 367.242 320.816 366.954 319.985 367.438L299.179 379.444C298.759 379.7 298.403 380.051 298.141 380.468C297.879 380.885 297.716 381.358 297.667 381.848C297.652 382.77 298.333 383.057 299.179 382.574Z" fill="#F7F9FC"/>
<path style="mix-blend-mode:screen" opacity="0.05" d="M256.224 370.946L285.708 353.301V285.033L256.224 302.694V370.946Z" fill="url(#paint6_linear)"/>
<path d="M257.403 292.366L282.2 278.048C282.529 277.812 282.915 277.667 283.319 277.627C283.722 277.587 284.129 277.654 284.498 277.821L287.159 279.333C286.79 279.166 286.383 279.099 285.98 279.139C285.576 279.179 285.191 279.324 284.861 279.56L260.049 293.909C259.112 294.516 258.333 295.337 257.775 296.304C257.218 297.272 256.899 298.358 256.843 299.473V327.974C256.807 328.383 256.884 328.794 257.065 329.162C257.246 329.53 257.525 329.841 257.871 330.061L255.21 328.549C254.886 328.32 254.628 328.009 254.463 327.648C254.298 327.286 254.233 326.888 254.273 326.493L254.197 297.991C254.243 296.866 254.558 295.767 255.116 294.789C255.673 293.81 256.458 292.979 257.403 292.366Z" fill="url(#paint7_linear)"/>
<path d="M260.048 293.909L284.845 279.59C286.63 278.562 288.066 279.394 288.081 281.435V309.936C288.02 311.048 287.698 312.13 287.141 313.094C286.584 314.058 285.808 314.877 284.876 315.485L260.154 329.804C258.385 330.832 256.934 330.016 256.934 327.975V299.473C256.979 298.366 257.284 297.285 257.825 296.318C258.367 295.352 259.128 294.526 260.048 293.909Z" fill="#E6EDF7"/>
<path d="M262.77 314.245C262.804 314.258 262.842 314.258 262.876 314.245C262.909 314.232 262.938 314.213 262.962 314.188C262.987 314.163 263.006 314.133 263.019 314.101C263.032 314.068 263.038 314.034 263.037 313.999C263.035 313.964 263.027 313.929 263.012 313.898C262.597 312.945 262.4 311.912 262.438 310.874C262.438 306.065 265.87 299.881 270.587 296.192C270.625 296.176 270.659 296.151 270.686 296.12C270.713 296.089 270.732 296.052 270.743 296.012C270.753 295.972 270.755 295.931 270.747 295.89C270.739 295.85 270.722 295.812 270.697 295.779C270.673 295.746 270.641 295.719 270.604 295.7C270.568 295.681 270.527 295.671 270.486 295.67C270.445 295.669 270.404 295.677 270.367 295.694C270.329 295.712 270.296 295.737 270.27 295.769C265.416 299.549 261.908 305.914 261.908 310.889C261.877 311.998 262.083 313.102 262.513 314.125C262.542 314.165 262.581 314.198 262.626 314.219C262.671 314.24 262.721 314.249 262.77 314.245Z" fill="#F7F9FC"/>
<path d="M282.336 302.708C282.393 302.711 282.449 302.694 282.496 302.662C282.542 302.629 282.577 302.581 282.593 302.527C282.943 301.359 283.122 300.147 283.123 298.928C283.208 297.915 283.04 296.897 282.633 295.965C282.227 295.033 281.595 294.217 280.794 293.591C279.848 293.035 278.781 292.718 277.685 292.668C276.589 292.618 275.497 292.836 274.504 293.304C274.436 293.328 274.38 293.378 274.349 293.443C274.318 293.508 274.314 293.583 274.338 293.651C274.362 293.72 274.412 293.775 274.477 293.807C274.542 293.838 274.617 293.842 274.686 293.818C275.598 293.38 276.603 293.17 277.615 293.207C278.626 293.244 279.614 293.526 280.492 294.029C281.215 294.612 281.784 295.364 282.148 296.218C282.512 297.072 282.66 298.003 282.578 298.928C282.581 300.091 282.413 301.247 282.079 302.361C282.068 302.394 282.063 302.43 282.066 302.466C282.069 302.501 282.08 302.536 282.097 302.567C282.114 302.598 282.137 302.626 282.166 302.647C282.194 302.669 282.226 302.685 282.261 302.693L282.336 302.708Z" fill="#F7F9FC"/>
<path d="M267.337 317.133C269.22 317.049 271.049 316.476 272.644 315.47C275.89 313.539 278.574 310.792 280.431 307.502C280.465 307.441 280.474 307.37 280.457 307.302C280.441 307.235 280.399 307.176 280.34 307.139C280.277 307.104 280.203 307.094 280.133 307.11C280.063 307.127 280.002 307.17 279.962 307.229C278.168 310.439 275.56 313.119 272.402 315.001C269.378 316.71 266.792 317.058 264.932 315.984C264.872 315.95 264.8 315.94 264.733 315.957C264.665 315.974 264.607 316.016 264.57 316.075C264.526 316.129 264.503 316.197 264.506 316.267C264.509 316.336 264.537 316.402 264.585 316.453C265.424 316.922 266.375 317.157 267.337 317.133Z" fill="#F7F9FC"/>
<path d="M271.525 295.119C271.525 295.663 271.964 295.859 272.508 295.542C272.778 295.382 273.008 295.163 273.181 294.901C273.354 294.639 273.465 294.341 273.506 294.03C273.506 293.486 273.053 293.289 272.508 293.606C272.24 293.767 272.013 293.987 271.842 294.249C271.672 294.511 271.564 294.808 271.525 295.119Z" fill="#FC3A6C"/>
<path d="M280.491 305.491C280.491 306.05 280.93 306.231 281.474 305.914C281.746 305.757 281.978 305.538 282.151 305.276C282.325 305.013 282.434 304.714 282.472 304.402C282.472 303.858 282.033 303.661 281.474 303.979C281.206 304.139 280.978 304.359 280.808 304.621C280.638 304.883 280.529 305.18 280.491 305.491Z" fill="#3BB4FF"/>
<path d="M262.71 315.757C262.71 316.302 263.164 316.498 263.708 316.181C263.976 316.02 264.204 315.8 264.374 315.538C264.544 315.276 264.653 314.979 264.691 314.669C264.691 314.124 264.252 313.928 263.708 314.245C263.438 314.405 263.208 314.624 263.035 314.886C262.862 315.148 262.751 315.446 262.71 315.757Z" fill="#616B8C"/>
<path d="M268.395 304.478L271.555 297.19C271.993 296.162 273.067 295.511 273.566 296.026L276.832 299.821L272.553 304.81L268.395 304.478Z" fill="#FC3A6C"/>
<path d="M264.903 312.567L268.396 304.478L272.554 304.78V309.891L265.901 313.731C265.009 314.245 264.45 313.595 264.903 312.567Z" fill="#616B8C"/>
<path d="M276.832 299.821L280.219 303.752C280.672 304.266 280.113 305.551 279.221 306.081L272.553 309.921V304.78L276.832 299.821Z" fill="#3BB4FF"/>
<path d="M272.553 301.937C273.596 301.332 274.518 301.378 275.002 301.937L272.553 304.795L270.179 304.629C270.687 303.517 271.513 302.58 272.553 301.937Z" fill="#D42250"/>
<path d="M272.553 307.623C271.041 308.53 269.726 307.986 269.726 306.413C269.745 305.788 269.9 305.174 270.179 304.614L272.553 304.78V307.623Z" fill="#3D4663"/>
<path d="M275.002 301.922C275.281 302.261 275.422 302.694 275.395 303.132C275.313 304.059 275.012 304.953 274.518 305.741C274.024 306.53 273.351 307.19 272.553 307.668V304.78L275.002 301.922Z" fill="#0F98ED"/>
<path style="mix-blend-mode:screen" opacity="0.05" d="M245.08 436.386L274.564 418.741V350.473L245.08 368.134V436.386Z" fill="url(#paint8_linear)"/>
<path d="M246.259 357.807L271.056 343.488C271.386 343.252 271.771 343.107 272.175 343.067C272.578 343.028 272.985 343.094 273.354 343.261L276.015 344.773C275.636 344.599 275.216 344.531 274.801 344.576C274.385 344.622 273.99 344.778 273.657 345.03L248.86 359.349C247.923 359.956 247.143 360.777 246.586 361.745C246.029 362.712 245.709 363.798 245.654 364.913V393.415C245.614 393.81 245.679 394.209 245.844 394.57C246.009 394.931 246.267 395.242 246.592 395.471L243.93 393.959C243.606 393.73 243.348 393.419 243.183 393.058C243.018 392.697 242.953 392.298 242.993 391.903V363.401C243.05 362.276 243.377 361.18 243.945 360.206C244.513 359.233 245.307 358.41 246.259 357.807Z" fill="url(#paint9_linear)"/>
<path d="M248.92 359.349L273.657 345.03C275.441 344.002 276.877 344.833 276.893 346.875V375.376C276.837 376.489 276.518 377.573 275.96 378.538C275.403 379.503 274.624 380.321 273.687 380.925L248.89 395.244C247.106 396.272 245.654 395.456 245.654 393.415V364.913C245.716 363.793 246.045 362.703 246.613 361.735C247.181 360.767 247.972 359.949 248.92 359.349Z" fill="#FBDE21"/>
<path d="M269.272 363.462C269.693 363.221 270.051 362.882 270.314 362.474C270.577 362.067 270.738 361.601 270.784 361.118C270.784 360.301 270.119 360.014 269.272 360.498C268.85 360.739 268.493 361.077 268.229 361.485C267.966 361.893 267.805 362.358 267.76 362.842C267.775 363.658 268.44 363.93 269.272 363.462Z" fill="#3BB4FF"/>
<path d="M268.395 362.479C268.395 362.962 268.788 363.129 269.272 362.841C269.511 362.697 269.714 362.499 269.863 362.263C270.013 362.027 270.105 361.759 270.133 361.481C270.133 360.997 269.74 360.83 269.272 361.118C269.028 361.258 268.821 361.455 268.668 361.692C268.516 361.929 268.422 362.198 268.395 362.479Z" fill="white"/>
<path d="M261.727 363.9C262.144 363.654 262.497 363.314 262.76 362.907C263.022 362.5 263.186 362.038 263.239 361.556C263.239 360.725 262.574 360.453 261.727 360.921C261.305 361.162 260.948 361.501 260.685 361.908C260.421 362.316 260.26 362.782 260.215 363.265C260.245 364.081 260.91 364.369 261.727 363.9Z" fill="#FC3A6C"/>
<path d="M260.864 362.902C260.864 363.386 261.257 363.552 261.726 363.28C261.97 363.135 262.176 362.935 262.328 362.696C262.48 362.457 262.574 362.186 262.603 361.904C262.603 361.42 262.21 361.269 261.726 361.541C261.487 361.686 261.285 361.885 261.136 362.121C260.986 362.357 260.893 362.624 260.864 362.902Z" fill="white"/>
<path d="M254.938 369.374C255.359 369.133 255.717 368.795 255.98 368.387C256.243 367.979 256.404 367.513 256.45 367.03C256.45 366.214 255.785 365.941 254.938 366.41C254.516 366.651 254.159 366.989 253.895 367.397C253.632 367.805 253.471 368.271 253.426 368.754C253.456 369.495 254.121 369.782 254.938 369.374Z" fill="#616B8C"/>
<path d="M254.076 368.315C254.076 368.799 254.469 368.965 254.938 368.693C255.181 368.548 255.388 368.348 255.54 368.109C255.692 367.87 255.786 367.599 255.815 367.317C255.815 366.833 255.422 366.682 254.938 366.954C254.699 367.099 254.497 367.298 254.348 367.534C254.198 367.77 254.105 368.037 254.076 368.315Z" fill="white"/>
<path d="M269.257 364.309L273.808 369.555L264.721 374.802L269.257 364.309Z" fill="#3BB4FF"/>
<path d="M261.726 364.762L268.515 372.609L254.938 380.441L261.726 364.762Z" fill="#FC3A6C"/>
<g style="mix-blend-mode:multiply">
<path d="M269.484 372.05L264.721 374.802L267.11 369.298L269.484 372.05Z" fill="#BFCCD9"/>
</g>
<path d="M261.726 364.762L268.515 372.609L254.938 380.441L261.726 364.762Z" fill="#FC3A6C"/>
<g style="mix-blend-mode:multiply">
<path d="M262.029 376.344L254.938 380.442L258.491 372.262L262.029 376.344Z" fill="#BFCCD9"/>
</g>
<path d="M254.937 370.054L260.925 376.979L248.935 383.904L254.937 370.054Z" fill="#616B8C"/>
<g style="mix-blend-mode:multiply" opacity="0.4">
<path d="M156.046 493.952C156.214 490.323 150.805 487.125 143.965 486.808C137.125 486.492 131.444 489.177 131.276 492.805C131.108 496.434 136.517 499.632 143.357 499.949C150.197 500.265 155.878 497.58 156.046 493.952Z" fill="#D0CDE1"/>
</g>
<path d="M178.732 410.198C177.529 410.298 176.342 410.536 175.194 410.909C172.927 410.813 170.672 410.535 168.45 410.077C165.426 409.684 163.914 409.427 161.162 409.049C157.67 408.55 156.309 408.475 156.309 408.475C156.309 408.475 153.285 411.151 156.309 413.011C158.229 414.266 164.912 413.6 170.068 413.752C170.824 413.752 174.468 413.555 174.892 413.585C175.013 413.585 176.298 414.22 177.417 414.492C178.356 414.64 179.309 414.691 180.259 414.644C180.834 414.644 180.607 414.054 180.259 413.918C179.911 413.782 179.518 413.767 179.004 413.555C178.49 413.343 178.46 413.101 178.505 412.95C178.551 412.799 178.747 412.618 179.246 412.542C179.881 412.526 180.513 412.633 181.106 412.859C181.763 413.077 182.4 413.351 183.011 413.676C183.359 413.918 184.115 413.888 184.206 413.54C184.095 412.988 183.857 412.471 183.51 412.028C182.877 411.332 182.075 410.811 181.182 410.516C180.378 410.327 179.557 410.221 178.732 410.198Z" fill="#EDC5AC"/>
<path d="M153.059 383.163C153.996 383.073 156.083 384.282 156.627 387.246C156.944 388.985 160.014 408.157 159.923 408.747C159.757 409.835 155.538 413.963 154.737 411.408C152.544 404.422 150.821 387.216 150.791 385.9C150.76 384.585 150.67 383.436 153.059 383.163Z" fill="#4A04B7"/>
<path d="M142.866 492.467C143.425 493.325 143.896 494.237 144.273 495.189C144.39 495.475 144.439 495.785 144.414 496.094C144.389 496.403 144.291 496.701 144.129 496.965C143.967 497.229 143.745 497.45 143.481 497.612C143.217 497.774 142.918 497.871 142.609 497.895C142.056 497.922 141.503 497.837 140.983 497.645C140.464 497.452 139.988 497.157 139.585 496.776C138.933 496.195 138.411 495.482 138.054 494.685C137.697 493.887 137.513 493.023 137.514 492.15C137.514 491.832 137.075 491.348 136.803 490.713C136.667 490.411 135.941 487.886 138.315 487.568C140.689 487.251 141.687 489.579 141.974 490.184C142.262 490.789 142.247 491.031 142.866 492.467Z" fill="#616B8C"/>
<path d="M143.971 494.297C143.4 493.323 142.895 492.313 142.459 491.273C142.459 491.167 142.459 491.076 142.338 490.985C142.241 490.472 142.105 489.966 141.93 489.473C141.93 489.186 141.93 488.944 141.794 488.702C141.537 488.019 141.031 487.458 140.377 487.132C139.724 486.807 138.971 486.741 138.271 486.948C137.227 487.145 136.925 487.629 136.759 488.052C136.555 488.475 136.502 488.955 136.607 489.413C136.896 490.294 137.271 491.145 137.726 491.953C137.974 493.636 138.765 495.192 139.979 496.383C140.449 496.784 141.015 497.058 141.621 497.177C142.228 497.296 142.855 497.257 143.442 497.064C144.757 496.519 144.53 495.219 143.971 494.297Z" fill="#575A89"/>
<path d="M146.269 492.377C147.636 493.252 149.13 493.91 150.699 494.327C151.365 494.524 153.406 494.781 154.222 494.025C154.382 493.69 154.455 493.321 154.434 492.951C154.434 492.301 153.481 492.316 153.058 492.074C151.427 491.256 149.72 490.598 147.963 490.109C147.615 489.988 145.74 489.262 144.939 489.08C144.32 489.024 143.697 489.139 143.139 489.413C142.655 490.229 142.807 491.016 143.517 491.303C144.468 491.57 145.389 491.929 146.269 492.377Z" fill="#616B8C"/>
<path d="M153.392 491.635L152.621 491.182C151.328 490.447 150.095 489.613 148.932 488.687C148.478 488.006 146.331 488.687 145.333 488.218C144.017 487.553 143.473 487.432 143.171 487.659C143.111 487.7 143.064 487.758 143.035 487.825C142.933 488.167 142.858 488.515 142.808 488.868C142.771 489.225 142.771 489.585 142.808 489.942C142.844 490.108 142.921 490.263 143.032 490.392C143.143 490.522 143.284 490.621 143.443 490.683C144.406 490.933 145.339 491.288 146.225 491.741C147.591 492.622 149.085 493.285 150.655 493.707C151.321 493.888 153.256 494.145 154.072 493.389C154.466 493.087 154.707 492.301 153.392 491.635Z" fill="#575A89"/>
<path d="M154.752 424.018C154.162 422.778 153.24 420.676 151.244 421.281C150.064 421.644 144.319 421.916 144.062 423.141C142.656 429.643 145.407 439.305 145.574 441.437C146.541 452.232 146.511 453.729 146.602 455.271C146.602 455.271 145.423 462.136 145.09 464.344C144.288 468.804 143.23 486.842 143.291 487.734C143.413 488.275 143.694 488.767 144.099 489.147C144.503 489.527 145.011 489.778 145.559 489.866C147.917 490.501 148.855 489.352 148.961 488.732C149.369 486.555 149.883 483.244 150.73 477.302C152.348 465.916 153.497 457.358 153.497 457.358C154.141 453.618 154.545 449.84 154.706 446.048C155.251 435.222 156.868 428.494 154.752 424.018Z" fill="#2F2E41"/>
<path d="M141.945 478.239C142.066 468.985 142.777 465.508 143.457 455.801C143.457 429.083 147.373 430.278 147.373 430.278C147.373 430.278 147.902 423.519 147.373 423.277C144.153 421.856 139.813 422.808 136.789 422.914C135.776 422.914 134.823 424.336 133.962 427.118C132.691 431.215 133.069 434.602 134.385 440.726C135.399 445.871 136.061 451.079 136.366 456.315C135.824 460.231 135.491 464.172 135.368 468.124C135.474 475.109 136.532 488.354 136.532 488.354C136.532 488.354 136.744 490.411 138.044 491.046C138.61 491.3 139.22 491.44 139.84 491.459C140.46 491.477 141.078 491.372 141.658 491.152C142.429 490.834 142.126 489.866 142.126 488.944C142.187 486.994 141.869 484.453 141.945 478.239Z" fill="#2F2E41"/>
<path d="M149.293 433.664L160.225 430.111L171.081 412.511L160.149 416.064L149.293 433.664Z" fill="#E6EDF7"/>
<path d="M134.551 426.18C135.035 426.439 135.541 426.657 136.063 426.83C137.253 427.2 138.48 427.438 139.722 427.541C143.652 427.994 147.633 427.501 151.334 426.105C153.39 425.273 155.386 424.683 155.341 423.081C155.341 421.191 155.159 418.817 155.114 413.192C155.023 410.197 155.292 407.202 155.915 404.271C156.132 403.065 156.551 401.905 157.155 400.839C158.41 399.039 157.881 396.666 156.399 393.279C155.492 391.147 155.825 390.255 155.356 388.244C154.887 386.233 153.844 383.708 152.634 383.345C148.53 383.755 144.526 384.865 140.795 386.626C138.821 387.9 137.086 389.513 135.67 391.389C135.413 391.721 135.186 392.024 135.004 392.296L134.868 392.492C134.598 392.816 134.426 393.209 134.369 393.626C134.369 393.747 134.021 406.206 134.46 413.797C134.453 413.913 134.453 414.029 134.46 414.145C134.883 421.024 133.643 425.046 134.551 426.18Z" fill="#6200EA"/>
<path d="M133.992 426.059L136.063 426.83C135.953 423.524 136.084 420.214 136.456 416.927C137.016 413.903 140.403 407.855 143.185 406.887C144.137 406.554 139.465 406.161 138.997 402.275C138.649 399.508 139.42 399.811 139.375 395.441C139.375 392.689 137.333 390.345 135.67 391.253L135.413 391.419C135.413 391.419 135.156 391.888 135.005 392.16C134.969 392.232 134.923 392.298 134.869 392.356C134.599 392.68 134.426 393.073 134.37 393.49C134.37 393.611 134.022 406.07 134.461 413.661C134.453 413.777 134.453 413.893 134.461 414.008C134.884 421.024 133.039 424.91 133.992 426.059Z" fill="#330096"/>
<path d="M151.183 367.136C152.453 368.647 153.284 370.477 153.587 372.428C152.8 375.286 152.075 380.079 151.44 380.562C148.582 382.77 148.552 384.025 146.783 383.723C145.694 383.541 144.515 381.893 143.365 381.273C142.237 380.486 141.22 379.55 140.341 378.491C135.594 373.834 135.004 366.531 138.829 364.157C142.655 361.783 148.552 364.475 151.183 367.136Z" fill="#2F2E41"/>
<path d="M141.083 386.943C142.027 387.552 143.107 387.921 144.226 388.019C145.346 388.116 146.473 387.939 147.509 387.503C148.945 386.838 148.401 385.991 148.401 385.991L147.705 382.967L139.782 379.383C140.295 380.784 140.73 382.213 141.083 383.662C141.151 384.755 141.151 385.851 141.083 386.943Z" fill="#EDC5AC"/>
<path d="M150.231 367.348C150.878 368.724 151.277 370.203 151.41 371.717C151.41 372.02 151.123 372.64 151.138 373.229C151.153 373.819 151.531 374.363 151.652 375.119C152.242 379.202 150.064 383.194 149.293 383.451C147.986 383.943 146.568 384.063 145.196 383.798C143.885 383.405 142.634 382.835 141.476 382.105C140.355 381.309 139.339 380.374 138.452 379.323C133.765 374.62 135.322 369.374 139.087 366.939C142.852 364.505 148.447 364.127 150.231 367.348Z" fill="#FBD1B8"/>
<path d="M148.78 365.2C151.018 366.712 151.532 370.553 149.612 370.81C142.732 371.732 144.214 373.97 144.35 376.435C144.186 378.047 144.106 379.667 144.108 381.288C144.086 382.157 143.89 383.013 143.532 383.806C143.173 384.598 142.66 385.31 142.021 385.9C141.794 385.749 137.107 386.157 132.042 377.962C129.653 374.091 133.025 369.162 133.962 367.378C137.319 361.012 145.378 362.932 148.78 365.2Z" fill="#2F2E41"/>
<path d="M154.737 424.97L155.508 423.67C155.765 423.262 155.115 423.443 154.253 423.549C153.392 423.655 152.137 423.912 151.486 423.912C151.075 423.885 150.671 423.787 150.292 423.625C150.292 423.625 148.402 422.415 147.54 421.78C144.849 419.814 140.237 416.684 135.58 413.071C134.962 412.472 134.155 412.109 133.297 412.042C133.297 412.042 129.124 413.554 131.588 417.017C133.1 419.088 144.894 424.774 145.968 425.212C146.926 425.647 147.851 426.152 148.735 426.724C150.094 428.059 151.777 429.017 153.618 429.506C155.263 429.533 156.854 428.927 158.064 427.813C158.442 427.42 159.666 426.059 159.273 425.152C159.001 424.592 157.353 425.968 154.737 424.97Z" fill="#FBD1B8"/>
<path d="M137.575 392.054C138.07 392.616 138.426 393.287 138.615 394.011C138.804 394.736 138.821 395.495 138.664 396.227C138.452 399.04 136.88 412.391 136.411 413.51C135.443 415.808 130 415.506 130 415.022C130 410.365 131.3 404.347 131.769 400.96C132.147 398.193 132.555 396.666 132.858 394.912C133.16 393.158 134.627 391.162 135.882 391.026C136.154 390.981 136.759 391.238 137.575 392.054Z" fill="#4A04B7"/>
</g>
<g filter="url(#filter1_d)">
<path d="M429.102 90.1586C429.712 89.2376 429.461 87.9943 428.525 87.4075C417.336 80.3927 404.586 76.2284 391.393 75.2953C378.199 74.3621 364.99 76.6902 352.925 82.0603C351.916 82.5095 351.493 83.7051 351.967 84.7027L364.029 110.087C364.503 111.084 365.694 111.505 366.711 111.072C373.771 108.067 381.454 106.777 389.128 107.319C396.801 107.862 404.226 110.221 410.793 114.19C411.738 114.762 412.977 114.513 413.587 113.592L429.102 90.1586Z" fill="#E7D9FC"/>
</g>
<defs>
<filter id="filter0_d" x="0.372549" y="205.535" width="480.579" height="428.629" filterUnits="userSpaceOnUse" color-interpolation-filters="sRGB">
<feFlood flood-opacity="0" result="BackgroundImageFix"/>
<feColorMatrix in="SourceAlpha" type="matrix" values="0 0 0 0 0 0 0 0 0 0 0 0 0 0 0 0 0 0 127 0"/>
<feOffset dy="2.16275"/>
<feGaussianBlur stdDeviation="10.8137"/>
<feColorMatrix type="matrix" values="0 0 0 0 0.439216 0 0 0 0 0.564706 0 0 0 0 0.690196 0 0 0 0.149 0"/>
<feBlend mode="normal" in2="BackgroundImageFix" result="effect1_dropShadow"/>
<feBlend mode="normal" in="SourceGraphic" in2="effect1_dropShadow" result="shape"/>
</filter>
<filter id="filter1_d" x="317.722" y="28.7832" width="148.539" height="146.69" filterUnits="userSpaceOnUse" color-interpolation-filters="sRGB">
<feFlood flood-opacity="0" result="BackgroundImageFix"/>
<feColorMatrix in="SourceAlpha" type="matrix" values="0 0 0 0 0 0 0 0 0 0 0 0 0 0 0 0 0 0 127 0"/>
<feOffset dy="10"/>
<feGaussianBlur stdDeviation="15"/>
<feColorMatrix type="matrix" values="0 0 0 0 0.439216 0 0 0 0 0.564706 0 0 0 0 0.690196 0 0 0 0.302 0"/>
<feBlend mode="normal" in2="BackgroundImageFix" result="effect1_dropShadow"/>
<feBlend mode="normal" in="SourceGraphic" in2="effect1_dropShadow" result="shape"/>
</filter>
<linearGradient id="paint0_linear" x1="221.432" y1="479.962" x2="271.299" y2="448.89" gradientUnits="userSpaceOnUse">
<stop stop-color="#3D4663"/>
<stop offset="0.27" stop-color="#3F4865"/>
<stop offset="0.37" stop-color="#454E6C"/>
<stop offset="0.45" stop-color="#4F5978"/>
<stop offset="0.51" stop-color="#5F6889"/>
<stop offset="0.52" stop-color="#616B8C"/>
</linearGradient>
<linearGradient id="paint1_linear" x1="249.298" y1="468.925" x2="278.934" y2="417.592" gradientUnits="userSpaceOnUse">
<stop stop-color="#3D4663"/>
<stop offset="0.35" stop-color="#616B8C"/>
</linearGradient>
<linearGradient id="paint2_linear" x1="226.542" y1="478.298" x2="201.08" y2="476.847" gradientUnits="userSpaceOnUse">
<stop offset="0.14" stop-color="#616B8C"/>
<stop offset="0.26" stop-color="#4E5776"/>
<stop offset="0.37" stop-color="#414A68"/>
<stop offset="0.47" stop-color="#3D4663"/>
</linearGradient>
<linearGradient id="paint3_linear" x1="-4409.71" y1="71458.4" x2="-6522.85" y2="68737.2" gradientUnits="userSpaceOnUse">
<stop offset="0.02"/>
<stop offset="0.09" stop-color="#0A0A0A"/>
<stop offset="0.22" stop-color="#262626"/>
<stop offset="0.38" stop-color="#535353"/>
<stop offset="0.57" stop-color="#919191"/>
<stop offset="0.78" stop-color="#E0E0E0"/>
<stop offset="0.86" stop-color="white"/>
</linearGradient>
<linearGradient id="paint4_linear" x1="308.162" y1="323.438" x2="337.434" y2="272.755" gradientUnits="userSpaceOnUse">
<stop offset="0.26" stop-color="#871937"/>
<stop offset="0.34" stop-color="#921A3B"/>
<stop offset="0.47" stop-color="#AF1E44"/>
<stop offset="0.62" stop-color="#D42250"/>
</linearGradient>
<linearGradient id="paint5_linear" x1="-4000.75" y1="74490.6" x2="-6113.43" y2="71769.5" gradientUnits="userSpaceOnUse">
<stop offset="0.02"/>
<stop offset="0.09" stop-color="#0A0A0A"/>
<stop offset="0.22" stop-color="#262626"/>
<stop offset="0.38" stop-color="#535353"/>
<stop offset="0.57" stop-color="#919191"/>
<stop offset="0.78" stop-color="#E0E0E0"/>
<stop offset="0.86" stop-color="white"/>
</linearGradient>
<linearGradient id="paint6_linear" x1="-3319.34" y1="69604.7" x2="-5432.03" y2="66883.6" gradientUnits="userSpaceOnUse">
<stop offset="0.02"/>
<stop offset="0.09" stop-color="#0A0A0A"/>
<stop offset="0.22" stop-color="#262626"/>
<stop offset="0.38" stop-color="#535353"/>
<stop offset="0.57" stop-color="#919191"/>
<stop offset="0.78" stop-color="#E0E0E0"/>
<stop offset="0.86" stop-color="white"/>
</linearGradient>
<linearGradient id="paint7_linear" x1="249.223" y1="325.041" x2="278.48" y2="274.358" gradientUnits="userSpaceOnUse">
<stop offset="0.46" stop-color="#BFCCD9"/>
<stop offset="0.57" stop-color="#F7F9FC"/>
</linearGradient>
<linearGradient id="paint8_linear" x1="-3113.19" y1="73022.5" x2="-5225.59" y2="70302.3" gradientUnits="userSpaceOnUse">
<stop offset="0.02"/>
<stop offset="0.09" stop-color="#0A0A0A"/>
<stop offset="0.22" stop-color="#262626"/>
<stop offset="0.38" stop-color="#535353"/>
<stop offset="0.57" stop-color="#919191"/>
<stop offset="0.78" stop-color="#E0E0E0"/>
<stop offset="0.86" stop-color="white"/>
</linearGradient>
<linearGradient id="paint9_linear" x1="238.079" y1="390.482" x2="267.352" y2="339.799" gradientUnits="userSpaceOnUse">
<stop offset="0.46" stop-color="#FBA317"/>
<stop offset="0.59" stop-color="#FBCB21"/>
</linearGradient>
</defs>
</svg>
