<svg width="84" height="71" viewBox="0 0 84 71" fill="none" xmlns="http://www.w3.org/2000/svg">
<path opacity="0.7" d="M67.2012 6.27771C67.1178 5.1763 66.1566 4.34741 65.0589 4.47002C58.4017 5.21363 51.9257 7.1427 45.9388 10.1713C39.3566 13.501 33.4946 18.0947 28.6877 23.6899C23.8807 29.2851 20.2229 35.7723 17.9231 42.7812C15.8313 49.156 14.9001 55.8489 15.1682 62.5421C15.2124 63.6457 16.1767 64.471 17.2781 64.3875L34.8254 63.0578C35.9268 62.9743 36.746 62.0135 36.7263 60.9091C36.6576 57.0464 37.2368 53.1946 38.4442 49.5148C39.8598 45.2009 42.1112 41.208 45.0699 37.7641C48.0286 34.3202 51.6366 31.4928 55.688 29.4433C59.1437 27.6952 62.8643 26.5422 66.6932 26.028C67.788 25.881 68.6144 24.9265 68.531 23.8251L67.2012 6.27771Z" fill="url(#paint0_linear)"/>
<defs>
<linearGradient id="paint0_linear" x1="100.384" y1="-33.6798" x2="30.5473" y2="154.79" gradientUnits="userSpaceOnUse">
<stop stop-color="#5E26CE"/>
<stop offset="1" stop-color="#A333F5"/>
</linearGradient>
</defs>
</svg>
