<svg width="1433" height="1369" viewBox="0 0 1433 1369" fill="none" xmlns="http://www.w3.org/2000/svg">
<path opacity="0.7" d="M668.86 97.9159C668.776 96.8145 667.814 95.9889 666.713 96.0765C555.108 104.946 448.931 148.008 362.662 219.417C275.879 291.253 213.515 388.238 184.166 497.005C154.817 605.772 159.929 720.965 198.797 826.705C237.664 932.445 308.374 1023.52 401.179 1087.39C493.984 1151.26 604.315 1184.76 716.962 1183.29C829.61 1181.82 939.027 1145.44 1030.13 1079.18C1121.24 1012.91 1189.54 920.012 1225.64 813.294C1261.52 707.207 1263.81 592.653 1232.22 485.243C1231.91 484.184 1230.8 483.58 1229.74 483.896L1100.29 522.479C1099.23 522.795 1098.63 523.909 1098.94 524.97C1122.3 604.802 1120.55 689.909 1093.89 768.736C1067.02 848.196 1016.16 917.364 948.324 966.705C880.49 1016.05 799.02 1043.13 715.146 1044.23C631.272 1045.32 549.123 1020.37 480.022 972.822C410.922 925.269 358.274 857.453 329.334 778.722C300.394 699.991 296.588 614.222 318.44 533.237C340.292 452.252 386.727 380.039 451.343 326.552C515.446 273.491 594.31 241.451 677.223 234.757C678.323 234.668 679.15 233.708 679.066 232.606L668.86 97.9159Z" fill="url(#paint0_linear)"/>
<defs>
<linearGradient id="paint0_linear" x1="710" y1="1071" x2="139.5" y2="683" gradientUnits="userSpaceOnUse">
<stop stop-color="#5E26CE"/>
<stop offset="1" stop-color="#A333F5"/>
</linearGradient>
</defs>
</svg>
