<svg width="180" height="180" viewBox="0 0 180 180" fill="none" xmlns="http://www.w3.org/2000/svg">
<g filter="url(#filter0_d)">
<path d="M127.448 64.469C128.465 64.0388 128.946 62.8628 128.468 61.8669C124.973 54.5791 119.461 48.4276 112.568 44.1543C105.107 39.5292 96.3949 37.3322 87.633 37.8662C78.871 38.4002 70.4904 41.6389 63.6464 47.1359C56.8023 52.6328 51.8319 60.1174 49.4202 68.5578C47.0084 76.9982 47.2742 85.9789 50.1808 94.262C53.0874 102.545 58.4917 109.723 65.6488 114.805C72.8059 119.888 81.3633 122.625 90.1415 122.64C98.2519 122.654 106.182 120.343 113 116.002C113.931 115.409 114.145 114.157 113.508 113.254L106.077 102.714C105.44 101.811 104.196 101.602 103.246 102.166C99.3005 104.509 94.7839 105.751 90.1703 105.743C84.8882 105.734 79.7389 104.087 75.4322 101.029C71.1255 97.9703 67.8735 93.6514 66.1245 88.6672C64.3755 83.683 64.2156 78.2789 65.6668 73.2C67.1181 68.1211 70.109 63.6174 74.2273 60.3097C78.3455 57.002 83.3885 55.0532 88.6608 54.7318C93.9332 54.4105 99.1755 55.7325 103.665 58.5156C107.586 60.9465 110.765 64.3874 112.877 68.4612C113.386 69.4418 114.552 69.9222 115.57 69.492L127.448 64.469Z" fill="#D8CCFC"/>
</g>
<defs>
<filter id="filter0_d" x="0.213867" y="0.214111" width="179.319" height="179.319" filterUnits="userSpaceOnUse" color-interpolation-filters="sRGB">
<feFlood flood-opacity="0" result="BackgroundImageFix"/>
<feColorMatrix in="SourceAlpha" type="matrix" values="0 0 0 0 0 0 0 0 0 0 0 0 0 0 0 0 0 0 127 0"/>
<feOffset dy="10"/>
<feGaussianBlur stdDeviation="15"/>
<feColorMatrix type="matrix" values="0 0 0 0 0.439216 0 0 0 0 0.564706 0 0 0 0 0.690196 0 0 0 0.302 0"/>
<feBlend mode="normal" in2="BackgroundImageFix" result="effect1_dropShadow"/>
<feBlend mode="normal" in="SourceGraphic" in2="effect1_dropShadow" result="shape"/>
</filter>
</defs>
</svg>
