<svg width="108" height="98" viewBox="0 0 108 98" fill="none" xmlns="http://www.w3.org/2000/svg">
<g filter="url(#filter0_d)">
<path d="M75.0449 41.7924C76.0623 41.3622 76.5467 40.1828 76.0195 39.2122C73.763 35.0575 70.1269 31.7901 65.7077 29.9976C60.668 27.9534 55.0225 27.9949 50.0134 30.1131C45.0042 32.2313 41.0417 36.2526 38.9975 41.2924C37.205 45.7115 37.0162 50.5963 38.425 55.1095C38.7541 56.1639 39.9377 56.638 40.9551 56.2078L44.7929 54.5849C45.8103 54.1547 46.2687 52.9823 46.0084 51.9088C45.403 49.4132 45.5878 46.7725 46.5655 44.3621C47.7956 41.3295 50.18 38.9097 53.1942 37.6351C56.2083 36.3605 59.6054 36.3355 62.638 37.5656C65.0484 38.5433 67.0717 40.2503 68.4405 42.4231C69.0292 43.3577 70.1897 43.8455 71.207 43.4153L75.0449 41.7924Z" fill="#D8CCFC"/>
</g>
<defs>
<filter id="filter0_d" x="0.513672" y="0" width="107.009" height="107.009" filterUnits="userSpaceOnUse" color-interpolation-filters="sRGB">
<feFlood flood-opacity="0" result="BackgroundImageFix"/>
<feColorMatrix in="SourceAlpha" type="matrix" values="0 0 0 0 0 0 0 0 0 0 0 0 0 0 0 0 0 0 127 0"/>
<feOffset dy="10"/>
<feGaussianBlur stdDeviation="15"/>
<feColorMatrix type="matrix" values="0 0 0 0 0.439216 0 0 0 0 0.564706 0 0 0 0 0.690196 0 0 0 0.302 0"/>
<feBlend mode="normal" in2="BackgroundImageFix" result="effect1_dropShadow"/>
<feBlend mode="normal" in="SourceGraphic" in2="effect1_dropShadow" result="shape"/>
</filter>
</defs>
</svg>
