<svg width="128" height="128" viewBox="0 0 128 128" fill="none" xmlns="http://www.w3.org/2000/svg">
<g filter="url(#filter0_d)">
<path d="M33.3344 43.582C32.3752 44.1298 32.0385 45.3539 32.6237 46.2907C38.5422 55.763 47.4439 63.0265 57.9542 66.9157C68.4644 70.8049 79.9501 71.0856 90.6088 67.7476C91.6629 67.4175 92.2041 66.269 91.8326 65.2287L86.4054 50.0334C86.0339 48.9932 84.8908 48.4579 83.8284 48.7603C77.6321 50.5241 71.0164 50.2794 64.942 48.0316C58.8677 45.7839 53.6863 41.6631 50.1307 36.2907C49.521 35.3696 48.3049 35.0319 47.3457 35.5797L33.3344 43.582Z" fill="#D8CCFC"/>
</g>
<defs>
<filter id="filter0_d" x="0.658203" y="0.0854492" width="126.996" height="126.996" filterUnits="userSpaceOnUse" color-interpolation-filters="sRGB">
<feFlood flood-opacity="0" result="BackgroundImageFix"/>
<feColorMatrix in="SourceAlpha" type="matrix" values="0 0 0 0 0 0 0 0 0 0 0 0 0 0 0 0 0 0 127 0"/>
<feOffset dy="10"/>
<feGaussianBlur stdDeviation="15"/>
<feColorMatrix type="matrix" values="0 0 0 0 0.439216 0 0 0 0 0.564706 0 0 0 0 0.690196 0 0 0 0.302 0"/>
<feBlend mode="normal" in2="BackgroundImageFix" result="effect1_dropShadow"/>
<feBlend mode="normal" in="SourceGraphic" in2="effect1_dropShadow" result="shape"/>
</filter>
</defs>
</svg>
