<svg width="359" height="359" viewBox="0 0 359 359" fill="none" xmlns="http://www.w3.org/2000/svg">
<g filter="url(#filter0_d)">
<path d="M275.849 129.469C276.866 129.039 277.344 127.865 276.895 126.855C268.252 107.445 253.97 91.062 235.885 79.8507C217.232 68.2879 195.453 62.7954 173.548 64.1304C151.643 65.4654 130.691 73.5622 113.581 87.3046C96.471 101.047 84.0449 119.758 78.0156 140.859C71.9862 161.961 72.6506 184.412 79.9171 205.12C87.1836 225.828 100.694 243.772 118.587 256.478C136.48 269.185 157.874 276.028 179.819 276.066C201.098 276.102 221.879 269.738 239.472 257.824C240.387 257.205 240.602 255.955 239.965 255.052L217.929 223.797C217.293 222.894 216.046 222.682 215.124 223.289C204.68 230.173 192.429 233.845 179.891 233.824C166.686 233.801 153.812 229.683 143.046 222.037C132.279 214.391 124.149 203.593 119.777 191.133C115.404 178.672 115.004 165.162 118.632 152.465C122.26 139.768 129.738 128.509 140.033 120.239C150.329 111.97 162.936 107.098 176.117 106.295C189.298 105.491 202.404 108.796 213.628 115.754C224.284 122.36 232.746 131.95 237.976 143.313C238.438 144.316 239.609 144.794 240.626 144.363L275.849 129.469Z" fill="#D8CCFC"/>
</g>
<defs>
<filter id="filter0_d" x="0" y="0" width="358.673" height="358.673" filterUnits="userSpaceOnUse" color-interpolation-filters="sRGB">
<feFlood flood-opacity="0" result="BackgroundImageFix"/>
<feColorMatrix in="SourceAlpha" type="matrix" values="0 0 0 0 0 0 0 0 0 0 0 0 0 0 0 0 0 0 127 0"/>
<feOffset dy="10"/>
<feGaussianBlur stdDeviation="15"/>
<feColorMatrix type="matrix" values="0 0 0 0 0.439216 0 0 0 0 0.564706 0 0 0 0 0.690196 0 0 0 0.302 0"/>
<feBlend mode="normal" in2="BackgroundImageFix" result="effect1_dropShadow"/>
<feBlend mode="normal" in="SourceGraphic" in2="effect1_dropShadow" result="shape"/>
</filter>
</defs>
</svg>
